<svg width="98" height="98" viewBox="0 0 98 98" fill="none" xmlns="http://www.w3.org/2000/svg">
<path d="M22.1901 51.1045C21.6859 50.1755 20.5242 49.8309 19.5948 50.3351L19.5586 50.3548C18.6295 50.859 18.285 52.021 18.7891 52.9501C19.136 53.5892 19.7938 53.9515 20.4731 53.9515C20.7815 53.9515 21.0943 53.8769 21.3844 53.7195L21.4206 53.6998C22.3497 53.1956 22.6942 52.0336 22.1901 51.1045Z" fill="#4C2E88"/>
<path d="M91.4922 16.3258H77.6478C74.0595 16.3258 71.1401 19.2453 71.1399 22.8336C71.1399 25.8718 73.2328 28.4305 76.0526 29.1436L68.5586 36.6375C63.1445 33.2179 56.715 31.6486 50.2768 32.205C43.2065 32.8154 36.5878 35.9667 31.6406 41.0785C26.1554 46.7459 23.2011 54.1825 23.3216 62.0185C23.4422 69.8521 26.6221 77.1965 32.2751 82.6987C32.9649 83.3701 33.6884 84.0052 34.438 84.6053C32.8537 85.1002 31.1695 85.3672 29.4243 85.3672C20.1366 85.3672 12.5805 77.8111 12.5805 68.5236C12.5805 64.6304 13.8702 60.9751 16.3101 57.953C16.974 57.1306 16.8456 55.9255 16.0231 55.2613C15.2005 54.5971 13.9954 54.7259 13.3314 55.5482C10.3786 59.2058 8.75237 63.8139 8.75237 68.5236C8.75237 79.922 18.0258 89.1954 29.4243 89.1954C40.8227 89.1954 50.0961 79.922 50.0961 68.5236C50.0961 61.1508 46.1601 54.3829 39.8988 50.6988C40.2104 50.3292 40.536 49.9689 40.8817 49.6232C41.7855 48.7194 42.7766 47.9352 43.8318 47.2695C50.9217 52.0562 55.1248 59.9256 55.1248 68.5236C55.1248 76.0778 51.7987 82.9144 46.5345 87.626C46.3344 87.805 46.1499 87.9822 45.979 88.1572C41.3682 92.0381 35.5653 94.1654 29.5043 94.1719C29.4939 94.1719 29.4857 94.1719 29.4754 94.1719C15.3253 94.1719 4.06253 83.0995 3.83131 68.9535C3.62574 56.3686 12.8119 45.3107 25.1993 43.2322C26.1214 43.0774 26.7966 42.2794 26.7966 41.3446V17.2269C26.7966 16.1698 25.9397 15.3129 24.8826 15.3129H20.2366C19.1811 15.3129 18.3225 14.4542 18.3225 13.3988C18.3225 12.3434 19.1811 11.4848 20.2366 11.4848H24.8828C25.9399 11.4848 26.7968 10.6278 26.7968 9.57071V6.50823C26.7968 5.05833 27.9753 3.8565 29.4241 3.82894C30.1152 3.81688 30.7865 4.08791 31.3035 4.59513C31.8456 5.12686 32.1564 5.86185 32.1564 6.61159V9.57052C32.1564 10.6277 33.0133 11.4846 34.0705 11.4846H38.612C39.6674 11.4846 40.526 12.3432 40.526 13.3986C40.526 14.454 39.6674 15.3127 38.612 15.3127H34.0703C33.0131 15.3127 32.1562 16.1696 32.1562 17.2267V29.9552C32.1562 30.022 32.157 30.0888 32.1581 30.1556C32.1757 31.2125 33.0478 32.0513 34.1038 32.0375C35.1607 32.0199 36.0033 31.1488 35.9857 30.0919C35.9849 30.0463 35.9843 30.0008 35.9843 29.9552V19.1408H38.6118C41.778 19.1408 44.354 16.5649 44.354 13.3986C44.354 10.2324 41.778 7.65647 38.6118 7.65647H35.9843V6.61159C35.9843 4.84071 35.2555 3.10983 33.9845 1.86263C32.7277 0.629596 31.0807 -0.0347723 29.3513 0.00140334C25.8321 0.0683952 22.9687 2.98714 22.9687 6.50823V7.65666H20.2368C17.0705 7.65666 14.4946 10.2326 14.4946 13.3988C14.4946 16.5651 17.0705 19.141 20.2368 19.141H22.9687V39.7709C16.7223 41.1813 11.0665 44.6184 6.90721 49.5637C2.3393 54.9949 -0.112236 61.9031 0.00394804 69.0159C0.131616 76.8311 3.25365 84.1325 8.79486 89.5749C14.3277 95.0089 21.6704 98.0002 29.4761 98C29.4867 98 29.4983 98 29.5087 98C36.6365 97.9925 43.4528 95.4313 48.8095 90.7716C50.1396 90.9536 51.4716 91.0447 52.7982 91.0447C60.5582 91.0447 68.1063 87.9792 73.6721 82.4137C77.349 78.7366 79.9931 74.1505 81.3184 69.1508C81.5892 68.1291 80.9805 67.0811 79.9586 66.8103C78.9367 66.5391 77.8889 67.1481 77.6181 68.1701C76.4656 72.5173 74.1651 76.5067 70.9652 79.7066C65.9965 84.6755 59.2119 87.3523 52.2742 87.2099C53.6104 85.5849 54.76 83.8383 55.7086 81.996C60.1209 81.3675 64.2419 79.3181 67.4094 76.1507C71.3139 72.2464 73.4642 67.0551 73.4642 61.5335C73.4642 56.0118 71.3139 50.8207 67.4096 46.9162C63.5051 43.0119 58.314 40.8617 52.7923 40.8617C47.2706 40.8617 42.0795 43.0119 38.175 46.9162C34.2707 50.8207 32.1204 56.0118 32.1204 61.5335C32.1204 67.0551 34.2707 72.2462 38.175 76.1505C39.4243 77.3998 40.8124 78.469 42.3143 79.3531C41.1936 80.6849 39.8712 81.841 38.3939 82.7741C37.1711 81.939 36.0136 80.9954 34.9454 79.9555C24.8362 70.1163 24.5878 53.8703 34.3914 43.7408C43.145 34.6963 57.4597 33.3729 67.6887 40.6624C68.4501 41.205 69.4919 41.1183 70.1531 40.4572L81.8294 28.7809C82.3768 28.2335 82.5405 27.4103 82.2442 26.695C81.9479 25.9797 81.25 25.5134 80.4758 25.5134H77.648C76.1703 25.5134 74.9683 24.3114 74.9683 22.8338C74.9683 21.3561 76.1705 20.1541 77.648 20.1541H91.4922C92.9698 20.1541 94.1719 21.3563 94.1719 22.8338V36.6779C94.1719 38.1556 92.9697 39.3576 91.4922 39.3578C90.7765 39.3578 90.1035 39.0789 89.5973 38.5728C89.091 38.0668 88.8123 37.3938 88.8123 36.6781V33.9983C88.8123 33.2242 88.3458 32.5262 87.6308 32.2299C86.9158 31.9338 86.0924 32.0976 85.5448 32.6446L73.9425 44.2471C73.2814 44.9082 73.1947 45.95 73.7371 46.7114C75.6791 49.4366 77.0487 52.474 77.8078 55.7394C78.047 56.769 79.0758 57.41 80.1054 57.1704C81.135 56.9311 81.7758 55.9023 81.5364 54.8727C80.7868 51.6487 79.5197 48.6174 77.7626 45.8409L85.2112 38.3923C85.5046 39.4744 86.0765 40.4658 86.8904 41.2799C88.1196 42.5091 89.7538 43.1859 91.4922 43.1859C95.0805 43.1857 97.9998 40.2662 98 36.6781V22.8338C98 19.2453 95.0805 16.3258 91.4922 16.3258ZM52.7921 44.6898C57.2911 44.6898 61.521 46.4419 64.7024 49.6232C67.8837 52.8046 69.6359 57.0345 69.6359 61.5335C69.6359 66.0326 67.8837 70.2623 64.7024 73.4436C62.6894 75.4567 60.2032 76.9133 57.5019 77.7015C58.457 74.7758 58.9533 71.6866 58.9533 68.5236C58.9533 63.4155 57.6255 58.3822 55.1133 53.9674C53.2459 50.6857 50.7504 47.7858 47.8006 45.4399C49.3966 44.947 51.0744 44.6898 52.7921 44.6898ZM40.8817 73.4438C37.7003 70.2625 35.9483 66.0328 35.9483 61.5336C35.9483 58.8335 36.5838 56.2325 37.7761 53.8947C42.9835 56.8722 46.268 62.4451 46.268 68.5238C46.268 71.2716 45.6063 73.8678 44.4343 76.1616C43.1416 75.4218 41.9505 74.5126 40.8817 73.4438Z" fill="#4C2E88"/>
<path d="M80.4193 60.1056C79.357 60.0822 78.4909 60.9338 78.4729 61.9907L78.4727 61.9991C78.4547 63.0561 79.2973 63.9191 80.3542 63.9371C80.3653 63.9373 80.3761 63.9373 80.387 63.9373C81.429 63.9373 82.2829 63.0934 82.3007 62.0474C82.3185 60.9908 81.4761 60.1236 80.4193 60.1056Z" fill="#4C2E88"/>
</svg>
