<svg width="98" height="98" viewBox="0 0 98 98" fill="none" xmlns="http://www.w3.org/2000/svg">
<path d="M85.1647 2.19003C83.4012 3.95199 82.6255 6.42634 83.0691 8.88692L66.6417 25.2997C61.2918 22.5342 55.1676 21.0351 49.0303 21.0351C42.9023 21.0351 36.7597 22.5369 31.419 25.2997L14.9918 8.88692C15.4306 6.45085 14.6501 3.94241 12.8964 2.19022C9.96499 -0.738651 5.10642 -0.72142 2.19242 2.19003C-0.720419 5.10033 -0.741114 9.95389 2.19223 12.8847C3.97317 14.6641 6.43953 15.4182 8.89497 14.9782L14.6396 20.7178C15.2011 21.2784 16.1111 21.2788 16.6721 20.7178C17.2334 20.1569 17.2334 19.2479 16.6721 18.6871L11.7841 13.8035C12.573 13.2689 13.2808 12.5617 13.8158 11.7737L28.8248 26.7697C27.9933 27.2836 27.1834 27.8285 26.3954 28.4023L20.4776 22.4896C19.9161 21.929 19.0063 21.929 18.445 22.4896C17.8838 23.0505 17.8838 23.9596 18.445 24.5203L24.1214 30.1918C15.5594 37.4872 10.5147 48.2172 10.5147 59.5177C10.5147 80.8206 28.1428 98 49.0307 98C70.5276 98 87.5467 81.9936 87.5467 59.5177C87.5467 47.945 82.5944 37.5421 73.94 30.1918L89.1663 14.9786C91.5884 15.4119 94.1209 14.6315 95.8688 12.8853C99.0651 9.69179 98.5171 4.17043 95.22 1.63041C92.385 -0.553706 88.0622 -0.704955 85.1647 2.19003ZM10.8639 10.8543C8.86259 12.8537 6.27627 12.4531 4.57946 11.0101C2.69907 9.41112 1.91151 6.53184 4.22476 4.2206C6.18908 2.258 8.63781 2.53465 10.3204 3.83233C12.3518 5.399 13.2664 8.45404 10.8639 10.8543ZM67.1058 28.8378C68.8939 29.8935 70.5822 31.1002 72.153 32.4412C67.9678 36.3966 64.1704 40.8447 60.8383 45.6942C58.476 44.24 56.0094 42.8801 53.4765 41.6312C57.4052 36.6178 61.9872 32.3062 67.1058 28.8378ZM47.5719 50.5806C48.8437 48.2743 50.2318 46.0691 51.7276 43.9725C54.3176 45.2302 56.8376 46.6088 59.2461 48.0876C57.8948 50.1819 56.6272 52.3477 55.4447 54.5783C52.884 53.1177 50.2868 51.7988 47.5719 50.5806ZM54.1382 57.1407C53.3027 58.8453 52.5148 60.5842 51.7778 62.3565C49.2622 60.8553 46.6207 59.4924 43.9004 58.2902C44.6146 56.5426 45.3978 54.8054 46.2348 53.1294C48.9646 54.3482 51.5703 55.6706 54.1382 57.1407ZM39.1457 25.3013C36.6389 28.0573 34.3013 31.0055 32.1602 34.1126C29.9613 33.6125 27.7222 33.1815 25.4668 32.8245C29.3652 29.385 34.0191 26.7822 39.1457 25.3013ZM22.8816 35.3471C25.4283 35.6944 27.9638 36.1397 30.4518 36.6762C29.0055 38.9229 27.658 41.2494 26.409 43.6445C23.6083 43.0453 20.7604 42.5565 17.906 42.1839C19.2926 39.7084 20.966 37.4144 22.8816 35.3471ZM16.5294 44.9051C19.3953 45.2506 22.2594 45.7178 25.0786 46.2996C24.1486 48.2341 23.2825 50.2101 22.4813 52.2229C19.7898 51.847 17.0504 51.5985 14.3043 51.4802C14.8333 49.1971 15.5831 46.9977 16.5294 44.9051ZM13.3889 59.5175C13.3889 57.7561 13.5196 56.0249 13.7681 54.3313C16.3401 54.4294 18.9068 54.6478 21.4334 54.98C19.205 61.123 17.5695 67.579 16.5736 74.2258C14.529 69.74 13.3889 64.7593 13.3889 59.5175ZM18.9128 78.539C21.1122 58.2267 29.6654 38.5729 44.1402 24.2435C46.5255 23.9136 49.0564 23.825 51.4896 23.9931C35.8253 40.7603 26.2569 62.0554 24.1002 84.9399C22.1358 83.0168 20.3925 80.8696 18.9128 78.539ZM35.3875 92.4137C32.2734 91.1197 29.3818 89.3966 26.7857 87.319C28.5404 63.5547 38.4553 41.466 55.054 24.4181C58.2885 24.9704 61.3758 25.9595 64.2526 27.3226C44.1432 41.7057 34.2442 67.6845 35.3875 92.4137ZM38.3233 93.4853C37.997 88.057 38.1851 82.6348 38.8851 77.3534C39.6401 71.6597 40.9771 66.1695 42.8664 60.9729C45.5812 62.1794 48.2083 63.5491 50.7003 65.0597C50.1421 66.5272 49.6169 68.0152 49.126 69.5227C46.49 77.6178 44.8907 86.1216 44.3632 94.8226C42.2889 94.5502 40.2704 94.0993 38.3233 93.4853ZM67.4895 89.9702C67.8261 87.1185 68.3054 84.3167 68.9293 81.5745C70.1154 83.1962 71.2069 84.8639 72.1888 86.5637C70.7202 87.8208 69.1497 88.962 67.4895 89.9702ZM74.343 84.5612C73.0086 82.3122 71.4968 80.1199 69.8303 78.0175C70.4964 75.6222 71.2738 73.2763 72.1631 70.9863C74.6027 73.4839 76.8626 76.1399 78.908 78.9112C77.5793 80.9477 76.0484 82.8408 74.343 84.5612ZM80.4925 76.2345C78.3184 73.3847 75.925 70.6613 73.3517 68.1067C74.2643 66.0049 75.2653 63.9672 76.355 62C78.7869 64.6178 81.0178 67.3895 83.012 70.2648C82.3518 72.3434 81.5052 74.3397 80.4925 76.2345ZM84.6722 59.5175C84.6722 61.9585 84.4246 64.3429 83.9542 66.647C82.0897 64.1359 80.0497 61.7148 77.8631 59.4122C79.6214 56.5426 81.5758 53.8362 83.7143 51.3073C84.3395 53.944 84.6722 56.6925 84.6722 59.5175ZM74.2667 34.3954C75.491 35.6232 76.626 36.9396 77.6621 38.3338C72.6274 44.1412 68.2485 50.4921 64.6399 57.2288C64.2652 57.928 64.5289 58.7982 65.2287 59.1723C65.9155 59.5395 66.7954 59.2904 67.1739 58.5839C70.5623 52.2585 74.6498 46.283 79.3353 40.7945C80.7363 43.0499 81.8933 45.4712 82.7665 48.0233C72.1551 59.8236 65.9481 75.718 64.4235 91.6319C61.7644 92.9094 58.9226 93.865 55.9496 94.4518C57.1829 83.9455 60.007 73.7998 64.3584 64.2673C64.6878 63.5458 64.3693 62.6939 63.6471 62.365C62.9243 62.0358 62.0723 62.354 61.7431 63.0756C57.1593 73.1184 54.2266 83.8213 53.009 94.9048C51.1173 95.1167 49.1476 95.1787 47.2276 95.0824C48.5751 72.4337 57.7668 49.9106 74.2667 34.3954ZM71.6655 28.4021C70.8775 27.8283 70.0674 27.2834 69.2361 26.7695L84.2453 11.7735C84.7797 12.5609 85.4881 13.2689 86.277 13.8033L71.6655 28.4021ZM90.5166 12.2282C86.4504 12.2282 84.3231 7.09241 87.1972 4.22079C88.989 2.4305 91.6716 2.52756 93.4316 3.88076C95.4672 5.44591 95.5366 8.31543 94.2293 10.2474C93.4448 11.4065 92.1648 12.2282 90.5166 12.2282Z" fill="#4C2E88"/>
</svg>
