<svg width="98" height="98" viewBox="0 0 98 98" fill="none" xmlns="http://www.w3.org/2000/svg">
<path d="M70.0527 51.5145C69.1401 51.5121 68.236 51.6784 67.3928 52.0037C66.5496 52.329 65.7841 52.8069 65.1405 53.4096L63 55.404L60.8597 53.4102C60.2146 52.8093 59.4488 52.3325 58.6059 52.0073C57.763 51.682 56.8596 51.5146 55.9473 51.5145C55.035 51.5145 54.1315 51.6819 53.2886 52.0071C52.4457 52.3323 51.6798 52.809 51.0347 53.4099C50.3896 54.0109 49.8778 54.7243 49.5286 55.5095C49.1795 56.2947 48.9997 57.1362 48.9997 57.9861C48.9997 58.836 49.1793 59.6776 49.5285 60.4628C49.8776 61.248 50.3893 61.9614 51.0344 62.5624L61.7621 72.556C61.9246 72.7074 62.1175 72.8274 62.3298 72.9094C62.5422 72.9913 62.7697 73.0335 62.9996 73.0335C63.2294 73.0335 63.457 72.9913 63.6693 72.9094C63.8816 72.8274 64.0745 72.7074 64.237 72.556L74.9656 62.5624C75.9372 61.6573 76.5989 60.5041 76.867 59.2487C77.135 57.9933 76.9974 56.692 76.4715 55.5094C75.9456 54.3269 75.0551 53.3161 73.9126 52.605C72.77 51.8939 71.4268 51.5144 70.0527 51.5145ZM72.4905 60.2565L63 69.0977L53.5095 60.2565C52.8777 59.6515 52.5269 58.8391 52.5331 57.9951C52.5394 57.151 52.9021 56.3432 53.5428 55.7463C54.1835 55.1495 55.0507 54.8117 55.9568 54.8059C56.8629 54.8001 57.735 55.1269 58.3844 55.7155L61.7621 58.862C61.9246 59.0134 62.1175 59.1335 62.3298 59.2155C62.5422 59.2974 62.7697 59.3396 62.9996 59.3396C63.2294 59.3396 63.457 59.2974 63.6693 59.2155C63.8816 59.1335 64.0745 59.0134 64.237 58.862L67.6156 55.7154C68.2647 55.125 69.1374 54.7968 70.0445 54.8018C70.9516 54.8069 71.8201 55.1448 72.4615 55.7423C73.103 56.3399 73.4657 57.1488 73.4711 57.9939C73.4766 58.8389 73.1242 59.6519 72.4905 60.2565Z" fill="#4C2E88"/>
<path d="M97.1423 26.3109L49.8923 0.22767C49.6214 0.0781538 49.3122 -0.000499708 48.9973 2.38893e-06C48.6824 0.000504486 48.3735 0.0801436 48.1031 0.230523L0.853125 26.5015C0.593054 26.6461 0.37772 26.8511 0.228181 27.0964C0.0786425 27.3418 1.88464e-05 27.6191 0 27.9012V96.3698C0 96.8021 0.184375 97.2168 0.512563 97.5225C0.840752 97.8282 1.28587 98 1.75 98H1.75372L96.2537 97.8123C96.7172 97.8114 97.1614 97.6392 97.4888 97.3336C97.8161 97.028 98 96.6139 98 96.1821V27.7135C97.9999 27.4305 97.9208 27.1524 97.7704 26.9065C97.6201 26.6606 97.4036 26.4553 97.1423 26.3109ZM35 52.3027V57.0572C35 57.3599 35.0905 57.6567 35.2614 57.9142C35.4322 58.1717 35.6767 58.3798 35.9673 58.5152L42.0656 61.3557C43.2003 61.8799 44.1903 62.6403 44.9591 63.5779C45.7279 64.5155 46.2549 65.6054 46.4992 66.763L47.2841 70.4186C47.3519 70.7342 47.5184 71.024 47.7627 71.2516L47.9402 71.4169C48.5499 71.9838 48.9135 72.7405 48.9612 73.5419C49.0088 74.3432 48.7371 75.1327 48.1983 75.7589L47.07 77.0729C46.3646 77.8942 45.4813 78.5677 44.4775 79.0494C43.4738 79.5311 42.3722 79.8101 41.2449 79.8682C40.1175 79.9264 38.9896 79.7624 37.9349 79.3869C36.8802 79.0114 35.9224 78.4328 35.124 77.6891L34.4881 77.0967C34.1599 76.791 33.7148 76.6192 33.2507 76.6192C32.7865 76.6192 32.3414 76.791 32.0132 77.0967C31.685 77.4024 31.5006 77.8171 31.5006 78.2495C31.5006 78.6818 31.685 79.0965 32.0132 79.4022L32.6491 79.9946C33.7198 80.9921 34.9911 81.7834 36.3902 82.3231C37.7893 82.8629 39.2889 83.1405 40.8032 83.1403C42.3175 83.14 43.817 82.8618 45.2159 82.3216C46.6148 81.7813 47.8857 80.9897 48.956 79.9917L51.1335 82.5292C51.3605 82.7935 51.6702 82.9854 52.0196 83.0783L52.4906 83.2039C55.2255 83.941 57.6685 85.4088 59.5173 87.4257C61.3661 89.4426 62.5397 91.9202 62.8928 94.5519H22.2928L21.6147 92.4981C19.8224 87.085 19.3152 81.3735 20.1283 75.7596C20.9414 70.1458 23.0553 64.7638 26.3235 59.9867L27.727 57.9324C27.7593 57.8852 27.7889 57.8364 27.8158 57.7863L28.2207 57.0323C28.8739 55.8043 29.8277 54.7365 31.0053 53.9149C32.1829 53.0934 33.5512 52.5411 35 52.3027ZM53.5176 80.0859L51.2297 77.4217C52.1316 76.2046 52.562 74.7379 52.4501 73.2627C52.3382 71.7874 51.6908 70.3916 50.6142 69.3047L49.9312 66.1234C49.5838 64.4784 48.835 62.9298 47.7426 61.5974C46.6502 60.265 45.2435 59.1845 43.6312 58.4394L38.5 56.0497V51.1359L45.6584 50.5297C45.9552 50.5045 46.2402 50.4092 46.4864 50.2527C46.7326 50.0961 46.9318 49.8836 47.0652 49.6353L48.8152 46.3749C49.0185 45.9887 49.0497 45.5432 48.902 45.1357C48.7542 44.7281 48.4396 44.3915 48.0266 44.1991C47.6136 44.0067 47.1357 43.9742 46.6971 44.1086C46.2584 44.243 45.8946 44.5334 45.6848 44.9167L44.3706 47.365L27.1285 48.8247L25.1768 46.0973L25.4058 45.9547C26.7087 45.1425 27.6999 43.9647 28.2355 42.5922C28.7712 41.2197 28.8236 39.7239 28.385 38.3219L34.0327 35.6913C34.416 35.5128 34.7157 35.2094 34.8749 34.8387L37.0186 29.8462C37.3485 29.076 37.855 28.3821 38.5027 27.8131C39.1503 27.2441 39.9236 26.8138 40.7684 26.5522L44.9247 25.2615C45.5638 25.0643 46.2233 24.9298 46.8923 24.8603C47.5927 25.6101 48.2218 26.4154 48.7723 27.2669L50.5547 30.0343C51.8278 32.0109 52.5002 34.2727 52.5 36.5778V39.9863C52.5 42.1481 53.4219 44.2213 55.0628 45.75C56.7038 47.2786 58.9294 48.1373 61.25 48.1373C63.5706 48.1373 65.7962 47.2786 67.4372 45.75C69.0781 44.2213 70 42.1481 70 39.9863C69.9997 39.3255 69.9551 38.6653 69.8666 38.0097C70.5674 38.8529 71.2378 39.7207 71.8778 40.6129C77.5752 48.5933 81.1764 57.7108 82.39 67.2281C83.4425 75.4784 82.6576 83.8422 80.0844 91.7973L79.1875 94.5857L66.4173 94.6112C66.0678 91.2676 64.6527 88.0978 62.3539 85.5094C60.0552 82.9209 56.9779 81.0322 53.5176 80.0859ZM22.9053 42.9239C22.7677 42.7316 22.6755 42.5142 22.635 42.2862C22.5944 42.0581 22.6064 41.8246 22.6701 41.6012C22.7338 41.3778 22.8477 41.1696 23.0044 40.9903C23.1611 40.8111 23.3569 40.6649 23.5788 40.5616L25.1538 39.828C25.2371 40.4868 25.1235 41.1542 24.8255 41.7566C24.5276 42.3591 24.0569 42.8733 23.4653 43.2424L23.2365 43.3851L22.9053 42.9239ZM61.8905 30.4621C63.3376 31.6559 64.4967 33.1219 65.2912 34.7635C66.0857 36.405 66.4977 38.1848 66.5 39.9855C66.5033 40.8944 66.2332 41.7859 65.7203 42.5591C65.2074 43.3322 64.4722 43.956 63.5981 44.3597C62.8685 44.6975 62.0648 44.8733 61.2501 44.8733C60.4354 44.8733 59.6317 44.6975 58.9022 44.3597C58.028 43.9561 57.2927 43.3323 56.7797 42.5591C56.2668 41.786 55.9967 40.8944 56 39.9855V36.5778C55.9998 33.6827 55.1551 30.8421 53.5563 28.3595L51.774 25.592C51.7232 25.5134 51.6677 25.4374 51.6158 25.3593C54.5445 26.1006 57.3077 27.323 59.7752 28.969C60.4971 29.4489 61.2022 29.9466 61.8905 30.4621ZM94.5 94.5554L82.8435 94.5784L83.4374 92.7342C86.1482 84.3524 86.9748 75.54 85.8655 66.8472C84.5873 56.8193 80.7934 47.2124 74.7906 38.8036C71.8601 34.7044 68.27 31.0495 64.1462 27.9674C63.7236 27.6226 63.282 27.295 62.8202 26.9875C62.7667 26.9521 62.7111 26.9195 62.6537 26.8899C62.3746 26.6963 62.0939 26.5039 61.8102 26.3152C58.4528 24.0746 54.6203 22.5279 50.5693 21.7788C48.321 21.3606 45.9944 21.4955 43.8191 22.1702L39.6629 23.4607C38.3353 23.8718 37.1201 24.5479 36.1023 25.4419C35.0844 26.3359 34.2884 27.4262 33.77 28.6366L31.8719 33.0535L22.013 37.6453C21.3472 37.9555 20.7598 38.394 20.2898 38.9317C19.8197 39.4694 19.4779 40.0942 19.2868 40.7644C19.0957 41.4346 19.0599 42.135 19.1816 42.8191C19.3032 43.5033 19.5797 44.1555 19.9927 44.7325L24.7931 51.4399C24.9678 51.684 25.21 51.8797 25.4942 52.0062C25.7783 52.1328 26.0938 52.1856 26.4075 52.1591L27.9657 52.027C26.7802 53.0335 25.8049 54.2356 25.0889 55.5727L24.7242 56.2521L23.3693 58.2352C19.8287 63.4104 17.5386 69.2409 16.6577 75.3225C15.7769 81.4042 16.3263 87.5916 18.268 93.4558L18.6806 94.7049L3.5 94.7353V28.8268L49.0033 3.527L94.5 28.6425V94.5554Z" fill="#4C2E88"/>
<path d="M40.25 70.7102C41.5789 70.7102 42.6562 69.7066 42.6562 68.4686C42.6562 67.2307 41.5789 66.2271 40.25 66.2271C38.9211 66.2271 37.8438 67.2307 37.8438 68.4686C37.8438 69.7066 38.9211 70.7102 40.25 70.7102Z" fill="#4C2E88"/>
<path d="M41.3438 37.4948C42.6727 37.4948 43.75 36.4912 43.75 35.2532C43.75 34.0153 42.6727 33.0117 41.3438 33.0117C40.0148 33.0117 38.9375 34.0153 38.9375 35.2532C38.9375 36.4912 40.0148 37.4948 41.3438 37.4948Z" fill="#4C2E88"/>
</svg>
