<svg width="82" height="98" viewBox="0 0 82 98" fill="none" xmlns="http://www.w3.org/2000/svg">
<path d="M80.3964 95.1288H65.5939L64.4874 81.1613C64.487 81.156 64.4866 81.1504 64.486 81.1451L63.5647 69.5174L68.2547 74.2022C69.6089 75.568 71.9182 75.5745 73.2772 74.2022L77.6268 69.8576C79.0114 68.4741 79.0112 66.2235 77.6266 64.8403L59.7497 46.9826C58.8382 46.0726 57.502 45.7269 56.2629 46.0802L52.5635 47.136L45.2542 39.8346C45.6027 39.1705 45.801 38.4159 45.801 37.6155C45.801 36.8152 45.6027 36.0606 45.2542 35.3963L52.5635 28.0949L55.0814 28.8135C56.8341 31.3115 57.8868 34.2317 58.1294 37.2913L58.4494 41.3292C58.5111 42.1234 59.2128 42.709 59.9953 42.6472C60.7865 42.5846 61.3773 41.8932 61.3146 41.1028L60.9946 37.0646C60.7695 34.2256 59.9467 31.4885 58.591 29.0195C59.0177 28.8442 59.4128 28.5848 59.7499 28.2481L77.627 10.3908C78.9986 9.033 78.993 6.72478 77.6268 5.37331L73.2773 1.02868C71.9171 -0.343276 69.6142 -0.342511 68.2549 1.02868L50.378 18.8859C49.929 19.3345 49.6178 19.8861 49.4594 20.4784C46.8239 19.2519 43.9456 18.6118 41.0001 18.6118C38.0556 18.6118 35.1775 19.2521 32.5411 20.4792C32.3826 19.8867 32.0714 19.3348 31.6223 18.8863L13.7455 1.02868C12.385 -0.343276 10.0824 -0.342511 8.72308 1.02868L4.37341 5.37331C2.99838 6.73091 2.99761 9.02918 4.3736 10.3908L22.2506 28.2482C22.5876 28.5848 22.9827 28.8442 23.4094 29.0195C22.0536 31.4883 21.2308 34.2256 21.0058 37.0646L20.0454 49.1852L4.37341 64.8401C2.98899 66.2233 2.9888 68.4739 4.3736 69.8576L8.72289 74.202C10.077 75.5678 12.3864 75.5743 13.7453 74.202L18.4355 69.517L17.5142 81.1449C17.5136 81.1502 17.5134 81.1558 17.5129 81.1611L16.4063 95.1286H1.6038C0.80994 95.1286 0.166687 95.7712 0.166687 96.5643C0.166687 97.3574 0.80994 98 1.6038 98H80.3962C81.1901 98 81.8334 97.3574 81.8334 96.5643C81.8334 95.7712 81.1901 95.1288 80.3964 95.1288ZM52.238 53.6502L53.308 49.9099L57.0527 48.8412C57.2886 48.7736 57.5438 48.8395 57.7178 49.0131L75.5946 66.8705C75.8586 67.1341 75.8586 67.5633 75.5947 67.8269L71.2451 72.1713C70.981 72.4355 70.5514 72.4351 70.2874 72.1713L52.4106 54.3141C52.2366 54.1408 52.1705 53.8862 52.238 53.6502ZM50.5313 49.1664L49.4741 52.8614C49.3904 53.1539 49.3473 53.4515 49.34 53.748H37.4455C36.6516 53.748 36.0083 54.3907 36.0083 55.1837C36.0083 55.9768 36.6516 56.6194 37.4455 56.6194H50.6527L55.0835 61.0452H26.9168L31.6225 56.3447C32.5338 55.4341 32.88 54.0995 32.5259 52.8614L31.469 49.1664L38.7785 41.8648C39.4434 42.213 40.1988 42.4112 41.0001 42.4112C41.8015 42.4112 42.557 42.213 43.2217 41.8648L50.5313 49.1664ZM39.0734 37.6155C39.0734 36.5543 39.9378 35.6909 41.0001 35.6909C42.0624 35.6909 42.9268 36.5543 42.9268 37.6155C42.9268 38.6766 42.0624 39.5399 41.0001 39.5399C39.9378 39.5399 39.0734 38.6766 39.0734 37.6155ZM52.4102 20.9166L70.2874 3.05915C70.4596 2.88686 70.6614 2.86102 70.766 2.86102C70.8708 2.86102 71.0726 2.88686 71.2451 3.05915L75.5944 7.40377C75.7668 7.57605 75.7927 7.77724 75.7927 7.88195C75.7927 7.98667 75.7668 8.18805 75.5946 8.36014L57.7176 26.2172C57.5436 26.391 57.289 26.4573 57.0525 26.3895L53.3078 25.3208L52.238 21.5803C52.1705 21.3446 52.2364 21.0902 52.4102 20.9166ZM32.0626 23.9888C34.7531 22.3487 37.8312 21.483 41.0001 21.483C44.1704 21.483 47.2485 22.3485 49.9374 23.988L50.5315 26.0644L43.2219 33.3659C42.557 33.0176 41.8016 32.8193 41.0003 32.8193C40.199 32.8193 39.4434 33.0175 38.7787 33.3659L31.4692 26.0644L32.0626 23.9888ZM6.40588 8.36033C6.23342 8.18824 6.20755 7.98686 6.20755 7.88215C6.20755 7.77744 6.23342 7.57625 6.40568 7.40396L10.7554 3.05934C10.9276 2.88705 11.1294 2.86121 11.2342 2.86121C11.3388 2.86121 11.5406 2.88705 11.713 3.05934L29.59 20.917C29.7638 21.0902 29.8297 21.3446 29.7621 21.5807H29.7623L29.4622 22.6299C29.4587 22.6408 29.4561 22.6519 29.4528 22.663L28.6925 25.3211L24.9477 26.3899C24.7115 26.4576 24.4568 26.3914 24.2826 26.2178L6.40588 8.36033ZM23.871 37.2914C24.1136 34.2317 25.1664 31.3113 26.9191 28.8135L29.4369 28.0949L36.7463 35.3963C36.3977 36.0604 36.1994 36.815 36.1994 37.6155C36.1994 38.4159 36.3977 39.1705 36.7463 39.8346L29.4369 47.136L25.7376 46.0802C24.8638 45.8316 23.9425 45.9311 23.155 46.3299L23.871 37.2914ZM11.7129 72.1715C11.449 72.4357 11.0194 72.4353 10.7552 72.1715L6.40588 67.8273C6.14183 67.5635 6.14183 67.1343 6.40568 66.8707L24.2826 49.0135C24.4114 48.8846 24.5846 48.8152 24.7619 48.8152C24.8239 48.8152 24.8864 48.8238 24.9477 48.8414L28.6925 49.9101L29.7623 53.6504C29.8299 53.8862 29.7638 54.1408 29.5902 54.3145L11.7129 72.1715ZM33.7961 95.1288H19.2895L20.2715 82.732H33.7961V95.1288ZM33.7961 79.8606H20.499L20.8495 75.4367H33.8437C33.7553 76.3869 33.9 78.9567 33.7961 79.8606ZM36.6706 95.1288V76.2537C36.6706 73.8689 38.6128 71.9286 41.0007 71.9286C43.3878 71.9286 45.3301 73.8689 45.3301 76.2537V95.1288H36.6706ZM40.9997 69.0574C38.3765 69.0574 36.0771 70.4659 34.8173 72.5653H21.0771L21.5663 66.3897L24.042 63.9166H57.9579L60.4336 66.3897L60.9228 72.5653H47.183C45.9231 70.4659 43.6235 69.0574 40.9997 69.0574ZM61.1506 75.4367L61.5011 79.8606H48.2039C48.1585 78.9404 48.248 76.2397 48.1562 75.4367H61.1506ZM48.2041 95.1288V82.732H61.7287L62.7107 95.1288H48.2041Z" fill="#4C2E88"/>
</svg>
