<svg width="98" height="86" viewBox="0 0 98 86" fill="none" xmlns="http://www.w3.org/2000/svg">
<path d="M96.5644 16.2894C95.7719 16.2894 95.1289 16.9516 95.1289 17.7678V80.9468H92.2578V7.51724C92.2578 6.70101 91.6148 6.03879 90.8223 6.03879H7.17773C6.38519 6.03879 5.74219 6.70101 5.74219 7.51724V80.9468H2.87109V74.5402C2.87109 73.724 2.22809 73.0618 1.43555 73.0618C0.643005 73.0618 0 73.724 0 74.5402V82.4253C0 83.2423 0.643005 83.9037 1.43555 83.9037H5.74219V84.3965C5.74219 85.2135 6.38519 85.875 7.17773 85.875H21.7799C22.1934 85.875 22.5874 85.6917 22.8596 85.3714C23.1325 85.0511 23.2574 84.6252 23.2035 84.2025L23.1654 83.9037H67.375C68.1675 83.9037 68.8105 83.2415 68.8105 82.4253C68.8105 81.6083 68.1675 80.9468 67.375 80.9468H22.7856L22.4065 77.9899H75.5935L75.2144 80.9468H73.5C72.7075 80.9468 72.0645 81.6083 72.0645 82.4253C72.0645 83.2415 72.7075 83.9037 73.5 83.9037H74.8354L74.7965 84.2025C74.7426 84.6252 74.8683 85.0511 75.1404 85.3714C75.4133 85.6917 75.8066 85.875 76.2201 85.875H90.8223C91.6155 85.875 92.2578 85.2135 92.2578 84.3965V83.9037H96.5644C97.3577 83.9037 98 83.2423 98 82.4253V17.7678C98 16.9516 97.357 16.2894 96.5644 16.2894ZM80.2949 48.7837C79.5031 48.7837 78.8594 48.1207 78.8594 47.3052C78.8594 46.4898 79.5031 45.8268 80.2949 45.8268H89.3867V48.7837H80.2949ZM76.2986 8.99569L82.5925 35.3798C82.7533 36.0544 83.3402 36.5056 83.9855 36.5056C84.0984 36.5056 84.2143 36.4917 84.3287 36.4625C85.0988 36.2677 85.5698 35.4668 85.3806 34.6745L79.2549 8.99569H83.3806L84.6068 23.6123C84.6718 24.3823 85.2984 24.9629 86.0356 24.9629C86.0767 24.9629 86.1186 24.9614 86.1605 24.9575C86.9508 24.8875 87.5355 24.1713 87.4674 23.3574L86.2622 8.99569H89.3867V42.8699H81.5929L73.5127 8.99569H76.2986ZM11.7378 8.99569L10.5326 23.3574C10.4645 24.1706 11.0492 24.8875 11.8395 24.9575C11.8814 24.9614 11.9233 24.9629 11.9644 24.9629C12.7016 24.9629 13.3282 24.3816 13.3932 23.6115L14.6194 8.99569H18.7451L12.6194 34.6745C12.4302 35.4668 12.9012 36.2677 13.6713 36.4625C13.7865 36.4917 13.9016 36.5056 14.0145 36.5056C14.6598 36.5056 15.2467 36.0544 15.4075 35.3798L21.7014 8.99569H24.4873L16.4071 42.8699H8.61328V8.99569H11.7378ZM17.7051 48.7837H8.61328V45.8268H17.7051C18.4969 45.8268 19.1406 46.4898 19.1406 47.3052C19.1406 48.1207 18.4969 48.7837 17.7051 48.7837ZM8.61328 82.9181V51.7406H16.1439L20.1425 82.9181H8.61328ZM19.0135 51.5303C20.7504 50.959 22.0117 49.2811 22.0117 47.3052C22.0117 45.4356 20.882 43.8332 19.2894 43.1817L27.4444 8.99569H47.5645V75.033H22.0274L19.0135 51.5303ZM50.4355 75.033V8.99569H70.5556L78.7106 43.1817C77.118 43.8332 75.9883 45.4356 75.9883 47.3052C75.9883 49.2811 77.2496 50.959 78.9865 51.5303L75.9726 75.033H50.4355ZM89.3867 82.9181H77.8575L81.8561 51.7406H89.3867V82.9181Z" fill="#4C2E88"/>
<path d="M96.5644 0.125H1.43555C0.643005 0.125 0 0.787222 0 1.60345V68.2322C0 69.0492 0.643005 69.7106 1.43555 69.7106C2.22809 69.7106 2.87109 69.0492 2.87109 68.2322V3.0819H95.1289V11.4598C95.1289 12.2768 95.7719 12.9382 96.5644 12.9382C97.357 12.9382 98 12.2768 98 11.4598V1.60345C98 0.787222 97.357 0.125 96.5644 0.125Z" fill="#4C2E88"/>
</svg>
