<svg width="98" height="70" viewBox="0 0 98 70" fill="none" xmlns="http://www.w3.org/2000/svg">
<path d="M97.9954 63.2294C97.9945 63.2162 97.9946 63.2032 97.9933 63.1899C97.9881 63.1375 97.9799 63.0862 97.9682 63.036C97.9671 63.031 97.9654 63.0261 97.964 63.0211C97.9527 62.9749 97.9388 62.9298 97.9223 62.8857C97.9179 62.8739 97.9131 62.8624 97.9083 62.8508C97.8922 62.8107 97.8741 62.7718 97.854 62.7338C97.8505 62.7271 97.8482 62.7203 97.8446 62.7136L90.1669 48.76V2.85232C90.1669 1.44035 88.9203 0.291687 87.3879 0.291687H10.6118C9.07936 0.291687 7.83273 1.44035 7.83273 2.85232V48.7596L0.15523 62.7134C0.151594 62.7201 0.149297 62.727 0.145852 62.7337C0.125754 62.7716 0.107762 62.8106 0.0914922 62.8504C0.086707 62.8621 0.0819219 62.8737 0.0775195 62.8855C0.06125 62.9298 0.0470859 62.9751 0.035793 63.0213C0.0346445 63.0261 0.0329219 63.0308 0.0317734 63.0356C0.0200977 63.086 0.0118672 63.1374 0.00669922 63.1898C0.00535937 63.2028 0.00535937 63.216 0.00459375 63.2291C0.00267969 63.2566 0 63.2838 0 63.3116V66.6671C0 68.3442 1.48053 69.7084 3.30061 69.7084H94.6994C96.5195 69.7084 98 68.3442 98 66.6671V63.3116C98 63.2838 97.9973 63.2566 97.9954 63.2294ZM10.704 2.93751H87.296V47.7533H10.704V2.93751ZM10.1501 50.3986H87.8497L94.227 61.9887H62.6871L61.104 56.6997C60.7816 55.623 59.7101 54.871 58.498 54.871H39.5017C38.2895 54.871 37.2178 55.623 36.8957 56.6995L35.3125 61.9887H3.77281L10.1501 50.3986ZM59.7088 61.9889H38.2912L39.6297 57.5166H58.3703L59.7088 61.9889ZM95.1289 66.6669C95.1289 66.8851 94.9362 67.0627 94.6994 67.0627H3.30061C3.06384 67.0627 2.87109 66.8851 2.87109 66.6669V64.6342H95.1289V66.6669Z" fill="#4C2E88"/>
<path d="M82.7979 27.5497C82.0049 27.5497 81.3624 28.1417 81.3624 28.8724V42.2858H16.6376V28.8724C16.6376 28.1417 15.9951 27.5497 15.2021 27.5497C14.4091 27.5497 13.7665 28.1417 13.7665 28.8724V42.8571C13.7665 44.0008 14.7762 44.9313 16.0176 44.9313H81.9826C83.2238 44.9313 84.2337 44.0009 84.2337 42.8571V28.8724C84.2335 28.1421 83.5909 27.5497 82.7979 27.5497Z" fill="#4C2E88"/>
<path d="M81.9824 5.75934H16.0176C14.7764 5.75934 13.7665 6.68966 13.7665 7.83356V21.8182C13.7665 22.5489 14.4091 23.1409 15.2021 23.1409C15.9951 23.1409 16.6376 22.5489 16.6376 21.8182V8.4048H81.3624V21.8182C81.3624 22.5489 82.0049 23.1409 82.7979 23.1409C83.5909 23.1409 84.2335 22.5489 84.2335 21.8182V7.83356C84.2335 6.68948 83.2238 5.75934 81.9824 5.75934Z" fill="#4C2E88"/>
</svg>
