<svg width="98" height="82" viewBox="0 0 98 82" fill="none" xmlns="http://www.w3.org/2000/svg">
<path fill-rule="evenodd" clip-rule="evenodd" d="M9.96646 42.6033C9.96646 41.6426 10.6857 40.9347 11.4667 40.9347H27.3707C28.1517 40.9347 28.8709 41.6426 28.8709 42.6033V54.513C28.8709 55.4737 28.1517 56.1815 27.3707 56.1815H11.4667C10.6857 56.1815 9.96646 55.4737 9.96646 54.513V42.6033ZM25.8704 44.2718H12.967V52.8445H25.8704V44.2718Z" fill="#4C2E88"/>
<path fill-rule="evenodd" clip-rule="evenodd" d="M69.1291 42.6033C69.1291 41.6426 69.8483 40.9347 70.6293 40.9347H86.5333C87.3143 40.9347 88.0335 41.6426 88.0335 42.6033V54.513C88.0335 55.4737 87.3143 56.1815 86.5333 56.1815H70.6293C69.8483 56.1815 69.1291 55.4737 69.1291 54.513V42.6033ZM85.033 44.2718H72.1296V52.8445H85.033V44.2718Z" fill="#4C2E88"/>
<path d="M37.2576 45.1226C37.2576 44.1619 37.9768 43.4541 38.7579 43.4541H59.2421C60.0231 43.4541 60.7424 44.1619 60.7424 45.1226C60.7424 46.0833 60.0231 46.7911 59.2421 46.7911H38.7579C37.9768 46.7911 37.2576 46.0833 37.2576 45.1226Z" fill="#4C2E88"/>
<path d="M37.2576 52.2227C37.2576 51.262 37.9768 50.5542 38.7579 50.5542H59.2421C60.0231 50.5542 60.7424 51.262 60.7424 52.2227C60.7424 53.1834 60.0231 53.8912 59.2421 53.8912H38.7579C37.9768 53.8912 37.2576 53.1834 37.2576 52.2227Z" fill="#4C2E88"/>
<path fill-rule="evenodd" clip-rule="evenodd" d="M7.32015 27.9401L14.8517 5.97863C16.0675 2.4711 19.1572 0.166687 22.5571 0.166687H76.7769C80.1821 0.18866 83.27 2.4742 84.4842 5.97863L92.1148 28.1944L94.3685 30.7717L94.3795 30.7831C96.6796 33.1584 97.9794 36.4384 98 39.8814L98 72.9268C97.979 77.895 94.2494 81.8334 89.7565 81.8334H84.1583C79.6647 81.8334 75.9347 77.894 75.9147 72.9249V67.6332H22.0853V72.9258C22.0648 77.8945 18.3349 81.8334 13.8417 81.8334H8.24354C3.75038 81.8334 0.0206166 77.8946 0 72.9261V40.7252C0 37.0435 1.50249 33.5483 4.08287 31.175L7.32015 27.9401ZM22.5571 3.50371C20.3653 3.50371 18.4258 4.9496 17.6669 7.12689L17.666 7.12934L10.7665 27.1927H54.5457L54.619 26.655C55.5187 20.0511 60.3158 14.9072 66.3596 13.9466C73.9258 12.7263 81.0401 18.3685 82.1654 26.6548L82.2384 27.1927H88.5907L81.6911 7.12934L81.6895 7.12472C80.9315 4.97564 78.9952 3.50371 76.8001 3.50371H22.5571ZM70.6384 17.3526C64.6817 16.0071 58.9042 20.1247 57.679 26.4524L57.5357 27.1927H79.208L79.0627 26.451C78.1716 21.9036 74.8872 18.329 70.6407 17.3531L70.6384 17.3526ZM89.9976 30.5297H9.15038L6.08409 33.6464L6.00388 33.733C4.10016 35.4816 3.00054 38.0475 3.00054 40.7252V58.7731L3.00056 58.7779C3.02409 61.828 5.34184 64.321 8.24646 64.2962H89.7535C92.66 64.321 94.9759 61.8031 94.9994 58.7779L95.0043 58.1512H94.9782V39.8778C94.9782 37.3805 94.0213 34.9732 92.338 33.2302C92.3137 33.1984 92.2904 33.1733 92.2719 33.1547L92.2568 33.1399C92.2505 33.1339 92.2445 33.1284 92.2389 33.1234C92.2342 33.1192 92.2298 33.1153 92.2258 33.1119L89.9976 30.5297ZM3.97658 66.4173L3.00054 65.7321V72.9274L3.00056 72.9322C3.02407 75.979 5.3167 78.4963 8.24354 78.4963H13.8417C16.7685 78.4963 19.0612 75.979 19.0847 72.9322L19.0847 72.9274V67.6332H8.24354C6.66543 67.6332 5.12236 67.2217 3.97658 66.4173ZM94.9995 72.9274V65.7321L94.0234 66.4173C92.8776 67.2217 91.3346 67.6332 89.7565 67.6332H78.9153V72.9274L78.9153 72.9322C78.9388 75.9541 81.2296 78.4963 84.1583 78.4963H89.7565C92.6833 78.4963 94.9759 75.979 94.9994 72.9322L94.9995 72.9274Z" fill="#4C2E88"/>
</svg>
