<svg width="94" height="94" viewBox="0 0 94 94" fill="none" xmlns="http://www.w3.org/2000/svg">
<path d="M92.124 81.4851H88.4554V10.3138C88.4554 9.30073 87.634 8.47951 86.6211 8.47951H73.1083V1.876C73.1083 0.862908 72.2869 0.041687 71.274 0.041687H22.726C21.7131 0.041687 20.8917 0.862908 20.8917 1.876V8.47951H7.37893C6.36602 8.47951 5.54462 9.30073 5.54462 10.3138V81.4851H1.876C0.862908 81.4851 0.041687 82.3063 0.041687 83.3194V92.124C0.041687 93.1371 0.862908 93.9584 1.876 93.9584H38.7464C39.7593 93.9584 40.5807 93.1371 40.5807 92.124C40.5807 91.111 39.7593 90.2897 38.7464 90.2897H3.71031V85.1537H90.2897V90.2897H55.254C54.2411 90.2897 53.4197 91.111 53.4197 92.124C53.4197 93.1371 54.2411 93.9584 55.254 93.9584H92.124C93.137 93.9584 93.9584 93.1371 93.9584 92.124V83.3194C93.9584 82.3063 93.137 81.4851 92.124 81.4851ZM24.5604 3.71031H69.4397V8.47951H24.5604V3.71031ZM45.1657 81.4851H35.6273V70.4792C35.6273 64.8328 39.7642 60.1364 45.1657 59.2565V81.4851ZM48.8343 81.4851V59.2565C54.2358 60.1364 58.3727 64.8328 58.3727 70.4792V81.4851H48.8343ZM62.0414 81.4851V70.4792C62.0414 62.1854 55.2939 55.4378 47 55.4378C38.7062 55.4378 31.9587 62.1854 31.9587 70.4792V81.4851H9.21324V12.1481H84.7868V81.4851H62.0414Z" fill="#4C2E88"/>
<path d="M24.9883 20.2191H16.1836C15.1707 20.2191 14.3493 21.0403 14.3493 22.0534V30.8581C14.3493 31.8712 15.1707 32.6924 16.1836 32.6924H24.9883C26.0014 32.6924 26.8226 31.8712 26.8226 30.8581V22.0534C26.8226 21.0403 26.0014 20.2191 24.9883 20.2191ZM23.154 29.0238H18.0179V23.8877H23.154V29.0238Z" fill="#4C2E88"/>
<path d="M42.5977 20.2191H33.793C32.7799 20.2191 31.9587 21.0403 31.9587 22.0534V30.8581C31.9587 31.8712 32.7799 32.6924 33.793 32.6924H42.5977C43.6108 32.6924 44.432 31.8712 44.432 30.8581V22.0534C44.432 21.0403 43.6108 20.2191 42.5977 20.2191ZM40.7634 29.0238H35.6273V23.8877H40.7634V29.0238Z" fill="#4C2E88"/>
<path d="M60.2071 20.2191H51.4024C50.3895 20.2191 49.5681 21.0403 49.5681 22.0534V30.8581C49.5681 31.8712 50.3895 32.6924 51.4024 32.6924H60.2071C61.22 32.6924 62.0414 31.8712 62.0414 30.8581V22.0534C62.0414 21.0403 61.22 20.2191 60.2071 20.2191ZM58.3727 29.0238H53.2367V23.8877H58.3727V29.0238Z" fill="#4C2E88"/>
<path d="M77.8164 20.2191H69.0117C67.9988 20.2191 67.1774 21.0403 67.1774 22.0534V30.8581C67.1774 31.8712 67.9988 32.6924 69.0117 32.6924H77.8164C78.8293 32.6924 79.6507 31.8712 79.6507 30.8581V22.0534C79.6507 21.0403 78.8293 20.2191 77.8164 20.2191ZM75.9821 29.0238H70.8461V23.8877H75.9821V29.0238Z" fill="#4C2E88"/>
<path d="M24.9883 37.8285H16.1836C15.1707 37.8285 14.3493 38.6497 14.3493 39.6628V48.4675C14.3493 49.4806 15.1707 50.3018 16.1836 50.3018H24.9883C26.0014 50.3018 26.8226 49.4806 26.8226 48.4675V39.6628C26.8226 38.6497 26.0014 37.8285 24.9883 37.8285ZM23.154 46.6332H18.0179V41.4971H23.154V46.6332Z" fill="#4C2E88"/>
<path d="M42.5977 37.8285H33.793C32.7799 37.8285 31.9587 38.6497 31.9587 39.6628V48.4675C31.9587 49.4806 32.7799 50.3018 33.793 50.3018H42.5977C43.6108 50.3018 44.432 49.4806 44.432 48.4675V39.6628C44.432 38.6497 43.6108 37.8285 42.5977 37.8285ZM40.7634 46.6332H35.6273V41.4971H40.7634V46.6332Z" fill="#4C2E88"/>
<path d="M60.2071 37.8285H51.4024C50.3895 37.8285 49.5681 38.6497 49.5681 39.6628V48.4675C49.5681 49.4806 50.3895 50.3018 51.4024 50.3018H60.2071C61.22 50.3018 62.0414 49.4806 62.0414 48.4675V39.6628C62.0414 38.6497 61.22 37.8285 60.2071 37.8285ZM58.3727 46.6332H53.2367V41.4971H58.3727V46.6332Z" fill="#4C2E88"/>
<path d="M77.8164 37.8285H69.0117C67.9988 37.8285 67.1774 38.6497 67.1774 39.6628V48.4675C67.1774 49.4806 67.9988 50.3018 69.0117 50.3018H77.8164C78.8293 50.3018 79.6507 49.4806 79.6507 48.4675V39.6628C79.6507 38.6497 78.8293 37.8285 77.8164 37.8285ZM75.9821 46.6332H70.8461V41.4971H75.9821V46.6332Z" fill="#4C2E88"/>
<path d="M24.9883 55.4378H16.1836C15.1707 55.4378 14.3493 56.2591 14.3493 57.2722V66.0768C14.3493 67.0899 15.1707 67.9112 16.1836 67.9112H24.9883C26.0014 67.9112 26.8226 67.0899 26.8226 66.0768V57.2722C26.8226 56.2591 26.0014 55.4378 24.9883 55.4378ZM23.154 64.2425H18.0179V59.1065H23.154V64.2425Z" fill="#4C2E88"/>
<path d="M77.8164 55.4378H69.0117C67.9988 55.4378 67.1774 56.2591 67.1774 57.2722V66.0768C67.1774 67.0899 67.9988 67.9112 69.0117 67.9112H77.8164C78.8293 67.9112 79.6507 67.0899 79.6507 66.0768V57.2722C79.6507 56.2591 78.8293 55.4378 77.8164 55.4378ZM75.9821 64.2425H70.8461V59.1065H75.9821V64.2425Z" fill="#4C2E88"/>
<path d="M47 90.2897C46.5176 90.2897 46.0443 90.486 45.7032 90.8272C45.362 91.1684 45.1657 91.6416 45.1657 92.124C45.1657 92.6065 45.3618 93.0797 45.7032 93.4209C46.0443 93.7621 46.5176 93.9584 47 93.9584C47.4824 93.9584 47.9557 93.7621 48.2967 93.4209C48.6379 93.0797 48.8343 92.6065 48.8343 92.124C48.8343 91.6416 48.6381 91.1684 48.2967 90.8272C47.9557 90.486 47.4824 90.2897 47 90.2897Z" fill="#4C2E88"/>
</svg>
