<svg width="98" height="98" viewBox="0 0 98 98" fill="none" xmlns="http://www.w3.org/2000/svg">
<path d="M44.3032 71.4025L43.8604 74.6324C47.2695 75.0932 50.7256 75.0932 54.1347 74.6324L53.6918 71.4025C50.5764 71.8215 47.4186 71.8215 44.3032 71.4025Z" fill="#4C2E88"/>
<path d="M48.9975 3.26359C55.3443 3.24879 61.5707 4.98626 66.9836 8.28259C72.3966 11.5789 76.7837 16.3048 79.6565 21.9341L82.5744 20.4503C79.4158 14.2949 74.6084 9.12749 68.6832 5.51867C62.7579 1.90985 55.9453 0 48.9975 0C42.0497 0 35.2371 1.90985 29.3118 5.51867C23.3866 9.12749 18.5792 14.2949 15.4206 20.4503L18.3385 21.9341C21.2114 16.3048 25.5984 11.5789 31.0114 8.28259C36.4243 4.98626 42.6507 3.24879 48.9975 3.26359Z" fill="#4C2E88"/>
<path d="M97.9755 59.606L94.8773 21.0842C94.8446 20.6764 94.6587 20.2957 94.3568 20.0178C94.0549 19.7399 93.6589 19.5852 93.2476 19.5843L91.6274 19.5807H91.6049C88.9975 19.5808 86.497 20.6112 84.6534 22.4451C82.8097 24.2791 81.774 26.7664 81.7741 29.3599V42.3806H85.0512V29.3599C85.0512 27.6309 85.7417 25.9727 86.9708 24.7501C88.1999 23.5274 89.8669 22.8405 91.6051 22.8404H91.6203L91.7311 22.8406L94.7088 59.8659C94.7932 60.92 94.5006 61.9698 93.8828 62.8303L78.8026 83.8093C78.6037 84.0859 78.4968 84.4173 78.4968 84.7573V97.7963H81.774V85.2799L96.5485 64.7263C97.6156 63.24 98.121 61.4267 97.9755 59.606Z" fill="#4C2E88"/>
<path d="M84.8463 57.7243L84.8469 57.7235L84.8477 57.7217L84.8483 57.7207L84.8493 57.7191L84.8497 57.7181L84.8511 57.7155L84.8527 57.7129L84.8531 57.7122L84.8541 57.7104L84.8545 57.7096L84.8557 57.7074L84.8559 57.707L84.8575 57.7042L84.8589 57.7014L84.8591 57.701L84.8603 57.6986L84.8605 57.6982L84.8619 57.6956C84.8629 57.6936 84.8641 57.6919 84.8649 57.6899L84.8651 57.6897L84.8665 57.6871V57.6869C84.9324 57.5608 84.9814 57.4267 85.0123 57.288V57.2878L85.0131 57.2848L85.0143 57.2787L85.0145 57.2781L85.0149 57.2759L85.0151 57.2749L85.0155 57.2731L85.0159 57.2719L85.0163 57.2699L85.0167 57.2675L85.0169 57.2667L85.0173 57.2647L85.0175 57.2639C85.0398 57.1558 85.0511 57.0457 85.0511 56.9354V45.6403H81.774V54.259L81.6751 54.2083C79.7228 53.2012 77.487 52.8757 75.3264 53.2841C73.1659 53.6925 71.2059 54.8111 69.7611 56.4603L60.3004 67.2252C58.786 68.9441 57.7237 71.0098 57.2086 73.2372C56.6936 75.4646 56.7418 77.7843 57.3491 79.9886L60.4726 91.381V97.7963H63.7497V91.1627C63.7498 91.0178 63.7303 90.8736 63.6919 90.7339L60.5105 79.1311C60.0462 77.4454 60.0093 75.6715 60.4032 73.9682C60.7971 72.2648 61.6095 70.6852 62.7677 69.3708L72.2284 58.606C73.1917 57.5066 74.4983 56.761 75.9386 56.4887C77.3789 56.2164 78.8694 56.4332 80.171 57.1044L81.1599 57.6126L73.7873 70.8129C73.5803 71.1905 73.5317 71.6342 73.6521 72.0472C73.7725 72.4603 74.0522 72.8093 74.4302 73.0181C74.8081 73.227 75.2538 73.2787 75.67 73.1622C76.0862 73.0456 76.4391 72.7702 76.652 72.3959L84.8449 57.727L84.8463 57.7243Z" fill="#4C2E88"/>
<path d="M12.0216 74.03L9.35572 75.9261L16.226 85.4837V98H19.5032V84.961C19.5032 84.621 19.3964 84.2895 19.1976 84.013L12.0216 74.03Z" fill="#4C2E88"/>
<path d="M28.2388 56.664C26.7941 55.0148 24.8342 53.8963 22.6737 53.4879C20.5132 53.0795 18.2774 53.4049 16.3252 54.412L16.226 54.463V29.5636C16.226 26.9701 15.1903 24.4829 13.3467 22.6489C11.5031 20.815 9.00266 19.7846 6.39533 19.7844H6.37253L4.75239 19.788C4.34104 19.7889 3.94509 19.9436 3.64316 20.2215C3.34123 20.4994 3.15541 20.8801 3.12262 21.2879L0.0245338 59.8098C-0.121018 61.6305 0.384411 63.4438 1.45169 64.93L7.0126 72.6663L9.67847 70.7703L4.11736 63.0339C3.49953 62.1735 3.20697 61.1236 3.29127 60.0696L6.26899 23.0443L6.3798 23.0441H6.39502C8.13326 23.0442 9.80027 23.7311 11.0294 24.9538C12.2584 26.1764 12.9489 27.8346 12.9489 29.5636V57.1391C12.9489 57.2529 12.9609 57.3664 12.9847 57.4777L12.9851 57.4801L12.9853 57.4807L12.9857 57.4827L12.9859 57.4833L12.9867 57.4867L12.9869 57.4881L12.9871 57.4893L12.9875 57.4909L12.9877 57.4921L12.9883 57.4943L12.9885 57.4949L12.9897 57.501L12.9899 57.5012L12.9905 57.5041C13.0226 57.6426 13.0727 57.7763 13.1395 57.9019L13.1397 57.9023L13.1409 57.9048L13.1411 57.905L13.1441 57.9106L13.1443 57.911L13.1455 57.9132L13.1459 57.9138L13.1469 57.916L13.1473 57.9166L13.1487 57.9192L13.1503 57.922L13.1507 57.9226L13.1517 57.9246L13.1521 57.9254L13.1531 57.9272L13.1537 57.928L13.1551 57.9306L21.348 72.5994C21.4515 72.7883 21.5916 72.9549 21.7602 73.0896C21.9288 73.2243 22.1225 73.3245 22.3302 73.3844C22.5379 73.4443 22.7555 73.4628 22.9703 73.4386C23.1852 73.4145 23.3932 73.3483 23.5822 73.2438C23.7713 73.1394 23.9377 72.9987 24.0718 72.83C24.2059 72.6613 24.3052 72.4678 24.3638 72.2608C24.4224 72.0537 24.4392 71.8372 24.4133 71.6236C24.3874 71.4101 24.3192 71.2037 24.2127 71.0165L16.8401 57.8162L17.8292 57.3081C19.1307 56.6367 20.6212 56.4198 22.0615 56.6921C23.5018 56.9644 24.8083 57.7101 25.7715 58.8096L35.2327 69.5745C36.3907 70.889 37.203 72.4686 37.5968 74.1719C37.9907 75.8753 37.9538 77.6492 37.4895 79.3348L34.3082 90.9377C34.2698 91.0774 34.2503 91.2216 34.2504 91.3664V98H37.5275V91.5848L40.651 80.1926C41.2583 77.9882 41.3066 75.6685 40.7916 73.441C40.2766 71.2136 39.2143 69.1479 37.6999 67.4289L28.2388 56.664Z" fill="#4C2E88"/>
<path d="M48.9599 65.1988C49.1753 65.1988 49.3886 65.1565 49.5875 65.0745C49.7865 64.9924 49.9672 64.8721 50.1194 64.7205L72.5889 42.3374C75.2674 39.6614 76.7712 36.039 76.7712 32.2629C76.7712 28.4867 75.2674 24.8644 72.5889 22.1884C71.2613 20.8651 69.6844 19.8153 67.9484 19.099C66.2124 18.3827 64.3514 18.014 62.472 18.014C60.5926 18.014 58.7316 18.3827 56.9956 19.099C55.2596 19.8153 53.6827 20.8651 52.3551 22.1884L48.9599 25.5704L45.5647 22.1885C44.2371 20.8652 42.6602 19.8154 40.9242 19.0991C39.1882 18.3828 37.3273 18.0141 35.4478 18.0141C33.5684 18.0141 31.7074 18.3828 29.9715 19.0991C28.2355 19.8154 26.6585 20.8652 25.331 22.1885C22.6525 24.8644 21.1487 28.4868 21.1487 32.263C21.1487 36.0391 22.6525 39.6615 25.331 42.3375L33.0908 50.0676L35.4098 47.7645L27.65 40.0343C25.5839 37.9701 24.4239 35.1758 24.4239 32.263C24.4239 29.3501 25.5839 26.5559 27.65 24.4916C28.6732 23.4716 29.8887 22.6624 31.2267 22.1102C32.5648 21.5581 33.9992 21.2739 35.4478 21.2739C36.8965 21.2739 38.3309 21.5581 39.6689 22.1102C41.007 22.6624 42.2224 23.4716 43.2457 24.4916L47.8003 29.0289C47.9525 29.1805 48.1333 29.3008 48.3322 29.3829C48.5312 29.4649 48.7445 29.5072 48.9599 29.5072C49.1753 29.5072 49.3885 29.4649 49.5875 29.3829C49.7865 29.3008 49.9672 29.1805 50.1194 29.0289L54.6741 24.4917C55.6973 23.4717 56.9127 22.6625 58.2508 22.1103C59.5888 21.5582 61.0232 21.274 62.4719 21.274C63.9205 21.274 65.3549 21.5582 66.693 22.1103C68.0311 22.6625 69.2465 23.4717 70.2697 24.4917C72.3358 26.556 73.4958 29.3502 73.4958 32.2631C73.4958 35.1759 72.3358 37.9702 70.2697 40.0344L48.9599 61.2622L38.6662 51.0082L36.3472 53.3114L47.8004 64.7205C47.9526 64.8721 48.1333 64.9924 48.3323 65.0745C48.5312 65.1565 48.7445 65.1988 48.9599 65.1988Z" fill="#4C2E88"/>
<path d="M42.156 43.2253L45.6167 37.5455L52.4347 49.6167C52.5677 49.8524 52.7577 50.0515 52.9874 50.196C53.2171 50.3405 53.4793 50.426 53.7504 50.4446C53.7882 50.4472 53.8258 50.4484 53.8634 50.4484C54.1161 50.4483 54.3653 50.3902 54.5917 50.2784C54.818 50.1667 55.0153 50.0045 55.1681 49.8043L59.592 44.0104H63.6946V40.7507H58.7789C58.5262 40.7507 58.2769 40.8088 58.0505 40.9206C57.8242 41.0323 57.6268 41.1946 57.4739 41.3947L54.0686 45.8546L47.0989 33.5145C46.9586 33.2662 46.7555 33.0588 46.5095 32.9129C46.2636 32.767 45.9836 32.6878 45.6973 32.6831C45.6883 32.6829 45.6793 32.6829 45.6701 32.6829C45.3884 32.6829 45.1115 32.7552 44.8661 32.8927C44.6206 33.0302 44.415 33.2284 44.269 33.468L39.8317 40.7507H34.2004V44.0104H40.7546C41.0364 44.0104 41.3133 43.9382 41.5588 43.8007C41.8043 43.6632 42.01 43.465 42.156 43.2253Z" fill="#4C2E88"/>
</svg>
