<svg width="98" height="96" viewBox="0 0 98 96" fill="none" xmlns="http://www.w3.org/2000/svg">
<path d="M97.6008 40.717L81.1982 19.572C80.5911 18.7899 79.4837 18.597 78.6441 19.1268L68.054 25.8106H54.2421C54.0634 25.8106 53.8854 25.8484 53.7135 25.8981L43.0044 28.9573L31.8924 25.9412L21.0952 19.1268C20.2697 18.6059 19.1826 18.7825 18.5687 19.5379L0.426288 41.8389C-0.225689 42.6402 -0.118023 43.8103 0.668537 44.4818L10.1775 52.6028L18.7086 64.0115C16.2136 66.6493 16.2622 70.8096 18.8581 73.3865C20.0088 74.5277 21.472 75.1724 22.9771 75.3223C22.9247 75.6607 22.8978 76.0042 22.8978 76.3529C22.8978 78.153 23.6044 79.8455 24.8866 81.118C26.1697 82.3912 27.8751 83.0924 29.689 83.0924C29.7137 83.0924 29.7376 83.0909 29.7615 83.0901C29.7608 83.1361 29.7585 83.1814 29.7585 83.2274C29.7585 85.0275 30.4651 86.7199 31.7474 87.9932C33.0304 89.2657 34.7358 89.9668 36.5497 89.9668C36.9078 89.9668 37.2622 89.9379 37.6099 89.8845C37.7572 91.3833 38.4084 92.842 39.5629 93.9876C40.8863 95.3017 42.6254 95.9583 44.3645 95.9583C46.1036 95.9583 47.8427 95.3017 49.1668 93.9876L50.2053 92.957L50.6412 93.3057C51.9542 94.5679 53.6589 95.1985 55.3636 95.1985C57.1027 95.1985 58.8418 94.5419 60.1652 93.2278C61.5163 91.8871 62.1779 90.1175 62.1503 88.3567C63.9238 88.3834 65.7077 87.7275 67.0588 86.3875C68.4084 85.0475 69.0701 83.2793 69.0439 81.5194C70.8914 81.5483 72.644 80.8442 73.9517 79.5464C75.3027 78.2057 75.9644 76.436 75.9368 74.6753C77.7118 74.702 79.4942 74.0461 80.8453 72.7054C83.1511 70.4171 83.448 66.8801 81.738 64.269L87.9669 51.3229L97.3316 43.3258C98.1055 42.6647 98.2236 41.5191 97.6008 40.717ZM20.4806 23.2589L28.2445 28.1582L11.3551 48.5776L4.58713 42.7968L20.4806 23.2589ZM21.5759 66.5521L23.9191 64.2267C23.9902 64.1562 24.0649 64.0894 24.1412 64.0271C24.5995 63.6561 25.1543 63.435 25.742 63.3823C25.7584 63.3809 25.7756 63.3809 25.7921 63.3801C25.8758 63.3734 25.9596 63.369 26.0441 63.3697C26.8471 63.3809 27.5932 63.7066 28.1465 64.2861C29.2322 65.425 29.1738 67.2859 28.0164 68.4345L25.7442 70.6894C24.5951 71.8298 22.7251 71.8298 21.5759 70.6894C20.4267 69.5482 20.4267 67.6925 21.5759 66.5521ZM27.6045 78.4208C27.0474 77.8688 26.7409 77.1342 26.7409 76.3529C26.7409 75.5716 27.0474 74.8371 27.6045 74.2843L32.1481 69.7753C33.0184 68.9116 34.3867 68.6749 35.4992 69.201C36.6462 69.7434 37.2914 70.9788 37.1232 72.2216C37.0335 72.8849 36.7224 73.5097 36.2454 73.9838L31.7735 78.4208C31.2165 78.9736 30.4763 79.2778 29.689 79.2778C28.9017 79.2778 28.1615 78.9736 27.6045 78.4208ZM34.4652 85.2953C33.9082 84.7433 33.6016 84.0087 33.6016 83.2274C33.6016 82.4461 33.9082 81.7115 34.4652 81.1588L39.0081 76.6497C39.9389 75.7267 41.4321 75.5279 42.5715 76.186C43.6123 76.787 44.1574 77.9668 43.9787 79.1421C43.8807 79.7883 43.5712 80.396 43.1054 80.8583L38.6342 85.2953C38.0772 85.8481 37.337 86.1523 36.5497 86.1523C35.7624 86.1523 35.0222 85.8481 34.4652 85.2953ZM42.2799 91.2905C41.1307 90.1501 41.1307 88.2944 42.2799 87.154L44.6232 84.8286C44.6942 84.7581 44.7682 84.6921 44.8445 84.6297C44.8467 84.6283 44.8482 84.6268 44.8497 84.6253C45.231 84.3181 45.6789 84.1126 46.1567 84.0228C46.1679 84.0213 46.1791 84.0198 46.1903 84.0184C46.2725 84.0035 46.3563 83.9916 46.44 83.9842C46.4737 83.9813 46.5073 83.9813 46.5417 83.979C46.6105 83.9753 46.6785 83.9709 46.7481 83.9716C47.5503 83.9827 48.2973 84.3077 48.8505 84.888C48.9186 84.9592 48.9821 85.0334 49.0405 85.1098C49.9242 86.2562 49.8053 87.959 48.7085 89.0483L46.4482 91.2913C45.2991 92.4317 43.4291 92.431 42.2799 91.2905ZM78.1275 70.0082C76.9783 71.1494 75.1083 71.1487 73.9591 70.0082C73.9173 69.9667 73.8732 69.9281 73.8283 69.8918L61.4721 57.5006C60.7252 56.752 59.5087 56.746 58.7543 57.4873C57.9999 58.2278 57.9939 59.435 58.7401 60.1837L71.2301 72.7076C71.2316 72.7091 71.2331 72.7105 71.2346 72.712C72.3838 73.8525 72.3838 75.7089 71.2346 76.8493C70.6776 77.4021 69.9374 77.7063 69.1501 77.7063C68.362 77.7063 67.6218 77.4021 67.0655 76.8493L58.7102 68.4716C57.964 67.7229 56.7475 67.717 55.9931 68.4575C55.2387 69.1987 55.2327 70.4059 55.9789 71.1546L64.2064 79.404C64.2483 79.4559 64.2931 79.5056 64.341 79.5531C65.4902 80.6935 65.4902 82.55 64.341 83.6904C63.191 84.8308 61.3204 84.8301 60.1712 83.6897L55.6111 79.1168C54.8641 78.3682 53.6477 78.3615 52.8933 79.1027C52.1388 79.8432 52.1329 81.0504 52.879 81.7991L57.312 86.2436C57.3539 86.2955 57.3988 86.346 57.4474 86.3934C58.5966 87.5339 58.5966 89.3903 57.4474 90.5307C56.2982 91.6719 54.4282 91.6712 53.2791 90.5307C53.1467 90.3994 52.9912 90.2985 52.8432 90.1857C52.7175 90.0907 52.6847 90.0247 52.7475 89.8733C52.811 89.7197 52.906 89.581 52.9695 89.4267C53.0398 89.2545 53.0966 89.0772 53.1519 88.8991C53.4465 87.9568 53.5333 86.9433 53.4009 85.9653C53.1467 84.0888 52.1067 82.3956 50.5306 81.3242C49.679 80.7462 48.6935 80.3671 47.6722 80.2246C48.1672 78.058 47.5728 75.7089 46.0266 74.0877C44.754 72.7536 43.0351 72.0049 41.1861 71.9797C41.1188 71.979 41.0515 71.979 40.9835 71.9797C41.0246 70.2286 40.3831 68.4887 39.1666 67.2132C37.8933 65.8791 36.1744 65.1305 34.3261 65.1052C33.7766 65.0978 33.2218 65.1557 32.6864 65.2781C32.4577 63.6984 31.6554 62.2367 30.4404 61.1913C29.2329 60.154 27.7144 59.5782 26.0971 59.5559C24.3947 59.5315 22.7221 60.1547 21.4578 61.2877L14.0296 51.3548L31.8004 29.87L37.4641 31.4074L30.0673 44.3601C29.1731 45.9265 28.9473 47.7443 29.431 49.4791C29.9148 51.2146 31.0498 52.6585 32.6281 53.5459C32.7268 53.6015 32.8263 53.6542 32.9272 53.7047C32.9347 53.7084 32.9422 53.7121 32.9504 53.7158C33.2158 53.8471 33.4887 53.9599 33.7654 54.0549C35.0536 54.4978 36.445 54.5461 37.7871 54.178C39.5352 53.698 40.9902 52.5709 41.8844 51.0053L46.6912 42.5875L55.2739 43.1915L78.1282 65.8709C79.2766 67.0121 79.2766 68.8678 78.1275 70.0082ZM78.9237 61.2669L57.484 39.9913C57.4436 39.9505 57.401 39.912 57.3569 39.8756C57.0481 39.6204 56.6653 39.466 56.2616 39.4378L45.7529 38.6981C45.0262 38.6484 44.3039 39.032 43.945 39.6604L38.5408 49.1252C38.1527 49.8048 37.5209 50.2938 36.7621 50.5023C36.0039 50.7108 35.2084 50.6128 34.5228 50.2277C33.8379 49.8426 33.3451 49.2157 33.1351 48.4626C32.925 47.7094 33.0229 46.92 33.4117 46.2403L40.6261 33.6051L43.5495 32.7704C43.5689 32.7644 43.5876 32.757 43.6071 32.7511L54.518 29.6244H67.7011L84.159 50.3865L78.9237 61.2669ZM86.6764 47.3934L71.4567 28.1827L79.2243 23.2804L93.4459 41.6126L86.6764 47.3934Z" fill="#4C2E88"/>
<path d="M59.3712 22.2298C59.8631 22.2298 60.3551 22.0435 60.7304 21.6711L73.8567 8.64482C74.6074 7.89987 74.6074 6.69266 73.8567 5.94771C73.106 5.20276 71.8896 5.20276 71.1389 5.94771L58.0126 18.974C57.2619 19.7189 57.2619 20.9261 58.0126 21.6711C58.388 22.0435 58.8799 22.2298 59.3712 22.2298Z" fill="#4C2E88"/>
<path d="M37.2697 21.6711C37.6451 22.0435 38.137 22.2298 38.629 22.2298C39.1202 22.2298 39.6122 22.0435 39.9875 21.6711C40.7382 20.9261 40.7382 19.7189 39.9875 18.974L26.8613 5.94771C26.1106 5.20276 24.8941 5.20276 24.1435 5.94771C23.3928 6.69266 23.3928 7.89987 24.1435 8.64482L37.2697 21.6711Z" fill="#4C2E88"/>
<path d="M49.0001 22.2298C50.061 22.2298 50.9216 21.3758 50.9216 20.3229V9.54262C50.9216 8.48975 50.061 7.63572 49.0001 7.63572C47.9391 7.63572 47.0785 8.48975 47.0785 9.54262V20.3229C47.0785 21.3758 47.9391 22.2298 49.0001 22.2298Z" fill="#4C2E88"/>
<path d="M47.2266 2.63105C47.5316 3.36487 48.292 3.84642 49.0943 3.80487C49.8868 3.76406 50.5829 3.2328 50.8282 2.48414C51.0741 1.72954 50.8065 0.869587 50.1694 0.388782C49.5197 -0.10241 48.6135 -0.129864 47.9339 0.316068C47.1757 0.813196 46.8819 1.803 47.2266 2.63105Z" fill="#4C2E88"/>
</svg>
