<svg width="98" height="98" viewBox="0 0 98 98" fill="none" xmlns="http://www.w3.org/2000/svg">
<path d="M37.1462 9.35823C37.735 8.82785 38.6426 8.87512 39.1738 9.46408C39.7042 10.0532 39.6567 10.9609 39.0677 11.4915C37.8215 12.6139 36.6711 13.823 35.618 15.1027L39.7805 27.9116L48.1758 30.9803L60.1016 22.3159V13.1081L49.2213 5.20529C47.3254 5.95178 45.4936 6.86957 43.7518 7.95905C43.0798 8.37957 42.1938 8.17534 41.7736 7.50313C41.3533 6.83091 41.5573 5.94508 42.2296 5.52475C48.0085 1.91043 54.6849 0 61.5371 0C67.8793 0 74.1238 1.65184 79.5951 4.77712C84.894 7.80382 89.3896 12.1524 92.5955 17.3531C93.0114 18.028 92.8016 18.9123 92.1267 19.3284C91.8918 19.4731 91.6317 19.5422 91.3747 19.5422C90.8931 19.5422 90.4226 19.2999 90.1512 18.8598C89.9581 18.5465 89.7592 18.237 89.5561 17.9306L86.1305 28.4717L95.0958 34.9833C94.9341 31.2348 94.1581 27.5814 92.7809 24.1036C92.489 23.3663 92.8498 22.5323 93.5869 22.2403C94.3239 21.9487 95.1584 22.3092 95.4501 23.0465C97.1423 27.3185 98 31.8324 98 36.4629C98 56.5686 81.6428 72.9258 61.5371 72.9258C41.4314 72.9258 25.0742 56.5686 25.0742 36.4629C25.0742 26.1472 29.4743 16.268 37.1462 9.35823ZM33.2176 54.5119L46.6976 54.4763L51.8209 47.7612L47.2521 33.6996L38.8568 30.6309L28.0098 38.5092C28.3635 44.3726 30.2267 49.8355 33.2176 54.5119ZM33.5217 17.9415C30.192 22.9839 28.2519 28.8731 27.9809 34.9816L36.9437 28.4717L33.5217 17.9415ZM54.4616 46.5979H68.6126L72.9857 33.1393L61.5371 24.8216L50.0887 33.1393L54.4616 46.5979ZM52.5684 4.08786L61.5371 10.6024L70.5037 4.08939C67.598 3.2874 64.5805 2.87109 61.5371 2.87109C58.484 2.87109 55.4699 3.28645 52.5684 4.08786ZM87.4564 15.1021C84.8642 11.9612 81.714 9.29373 78.1713 7.26999C76.7818 6.47642 75.3365 5.78985 73.8518 5.20606L62.9726 13.1081V22.3159L74.8982 30.9804L83.2935 27.9118L87.4564 15.1021ZM84.2178 30.6307L75.8225 33.6994L71.2537 47.761L76.4053 54.5135H89.8557C92.8472 49.8366 94.7105 44.3731 95.0648 38.509L84.2178 30.6307ZM87.7979 57.3845H76.7378L73.3132 67.9224C79.0471 65.7691 84.0404 62.0912 87.7979 57.3845ZM50.2803 68.1123L49.4069 65.425C49.1619 64.671 49.5744 63.8612 50.3284 63.616C51.0821 63.3708 51.8921 63.7835 52.1373 64.5376L53.6236 69.1107C56.1624 69.726 58.8119 70.0547 61.5371 70.0547C64.4405 70.0547 67.2588 69.6841 69.9479 68.9884L74.097 56.2214L68.9453 49.4689H54.1291L49.2982 55.8007L50.2382 58.6932C50.4832 59.4471 50.0705 60.257 49.3166 60.5022C49.1692 60.55 49.0197 60.5728 48.8727 60.5728C48.2677 60.5728 47.7049 60.1871 47.5078 59.5806L46.782 57.347L35.2708 57.3775C39.1418 62.2292 44.3258 65.9881 50.2803 68.1123Z" fill="#4C2E88"/>
<path d="M70.2918 74.2714C70.8527 73.7107 71.7614 73.7107 72.3221 74.2714C72.8827 74.832 72.8827 75.741 72.3221 76.3014L59.5164 89.1071C59.236 89.3873 58.8685 89.5276 58.5012 89.5276C58.1339 89.5276 57.7664 89.3875 57.486 89.1071C56.9254 88.5464 56.9254 87.6375 57.486 87.077L70.2918 74.2714Z" fill="#4C2E88"/>
<path d="M50.5967 74.52C51.1575 73.9594 52.0663 73.9594 52.6269 74.52C53.1876 75.0806 53.1876 75.9896 52.6269 76.5501L40.1844 88.9924C39.904 89.2726 39.5365 89.4129 39.1692 89.4129C38.8019 89.4129 38.4344 89.2728 38.1539 88.9924C37.5933 88.4318 37.5933 87.5228 38.1539 86.9624L50.5967 74.52Z" fill="#4C2E88"/>
<path d="M6.79758 63.3162C6.43027 63.3162 6.06277 63.1761 5.78236 62.8957C5.22173 62.3351 5.22173 61.4261 5.78236 60.8657L18.2249 48.4231C18.7857 47.8625 19.6945 47.8625 20.2552 48.4231C20.8158 48.9837 20.8158 49.8927 20.2552 50.4532L7.81261 62.8957C7.53239 63.1761 7.16489 63.3162 6.79758 63.3162Z" fill="#4C2E88"/>
<path d="M6.09684 44.7456C5.81643 45.026 5.44913 45.1661 5.08163 45.1661C4.71432 45.1661 4.34681 45.026 4.06641 44.7456C3.50578 44.185 3.50578 43.276 4.06641 42.7156L19.9407 26.8411C20.5013 26.2805 21.4101 26.2803 21.9709 26.8411C22.5316 27.4017 22.5316 28.3107 21.9709 28.8711L6.09684 44.7456Z" fill="#4C2E88"/>
<path d="M7.2003 78.7792C6.91989 79.0596 6.55258 79.1997 6.18508 79.1997C5.81777 79.1997 5.45027 79.0596 5.16986 78.7792C4.60924 78.2185 4.60924 77.3096 5.16986 76.7491L12.7576 69.1614C13.3182 68.6008 14.227 68.6006 14.7878 69.1614C15.3485 69.722 15.3485 70.631 14.7878 71.1915L7.2003 78.7792Z" fill="#4C2E88"/>
<path d="M31.4147 79.4097C31.9755 78.849 32.8843 78.849 33.445 79.4097C34.0056 79.9703 34.0056 80.8793 33.445 81.4397L25.8571 89.0276C25.5766 89.3079 25.2091 89.4482 24.8418 89.4482C24.4745 89.4482 24.107 89.3081 23.8266 89.0276C23.266 88.467 23.266 87.558 23.8266 86.9976L31.4147 79.4097Z" fill="#4C2E88"/>
<path d="M0.420494 95.5494L30.0368 65.9329C30.5974 65.3723 31.5062 65.3723 32.067 65.9329C32.6277 66.4936 32.6277 67.4026 32.067 67.963L2.45074 97.5795C2.17033 97.8597 1.80302 98 1.43552 98C1.06821 98 0.700722 97.8599 0.420311 97.5795C-0.140129 97.019 -0.140137 96.1099 0.420494 95.5494Z" fill="#4C2E88"/>
</svg>
