<svg width="22" height="22" viewBox="0 0 22 22" fill="none" xmlns="http://www.w3.org/2000/svg">
    <path d="M10.2493 15.1872C9.95762 14.8822 9.95769 14.3896 10.2493 14.0845L10.2494 14.0844L12.452 11.7818H1.65217C1.2328 11.7818 0.9 11.4274 0.9 11C0.9 10.5726 1.2328 10.2182 1.65217 10.2182H12.4536L10.2494 7.91373C9.95763 7.60874 9.95763 7.11586 10.2494 6.81086L10.2494 6.81084C10.5437 6.50338 11.0224 6.50334 11.3166 6.81086L11.2443 6.87998L11.3166 6.81086L14.7948 10.4473C15.0612 10.7259 15.0843 11.161 14.8641 11.4667C14.8383 11.5028 14.8095 11.5365 14.7781 11.5674L11.3168 15.186C11.3168 15.1861 11.3168 15.1861 11.3167 15.1861C11.1696 15.341 10.9764 15.4181 10.7826 15.4181C10.5888 15.4181 10.3956 15.3411 10.2493 15.1872ZM10.2493 15.1872C10.2492 15.1872 10.2492 15.1871 10.2492 15.1871L10.3216 15.1182L10.2494 15.1873C10.2493 15.1873 10.2493 15.1872 10.2493 15.1872ZM2.43864 7.30658C2.28833 7.70371 2.47461 8.15813 2.86185 8.31791L2.86219 8.31805C3.25077 8.47671 3.68763 8.27715 3.83963 7.87533L3.83968 7.8752C5.07887 4.58573 8.0612 2.46363 11.4348 2.46363C15.9301 2.46363 19.5957 6.28928 19.5957 11C19.5957 15.7107 15.9301 19.5364 11.4348 19.5364C8.06123 19.5364 5.07892 17.4143 3.83971 14.1249C3.68866 13.7227 3.2506 13.5234 2.86219 13.682L2.86185 13.6821C2.47464 13.8419 2.28836 14.2962 2.43861 14.6933C3.9038 18.5831 7.43347 21.1 11.4348 21.1C16.768 21.1 21.1 16.5646 21.1 11C21.1 5.4354 16.768 0.9 11.4348 0.9C7.43349 0.9 3.90385 3.41691 2.43864 7.30658ZM2.43864 7.30658C2.43865 7.30655 2.43866 7.30653 2.43867 7.3065L2.53219 7.34191L2.43861 7.30666C2.43862 7.30663 2.43863 7.3066 2.43864 7.30658Z" fill="#00A7F1" stroke="#00A7F1" stroke-width="0.2"/>
</svg>