<svg width="144" height="67" viewBox="0 0 144 67" fill="none" xmlns="http://www.w3.org/2000/svg">
    <path d="M47.52 5.73691C47.4378 4.94197 47.0419 4.21268 46.4199 3.7108C45.798 3.20893 45.0015 2.97594 44.2072 3.06352L30.9499 4.52524C29.3109 4.70595 28.125 6.17554 28.2946 7.81571L29.6261 20.6935C29.8511 22.8693 29.4629 23.8612 29.1508 24.2744C28.7269 24.7876 28.0701 25.2011 26.852 25.3354C25.4613 25.4887 24.8959 25.1804 24.6344 24.9479C24.3074 24.617 23.8189 23.7811 23.6209 21.866L22.2414 8.52407C22.1592 7.72913 21.7632 6.99984 21.1413 6.49797C20.5193 5.99609 19.7228 5.7631 18.9285 5.85069L5.67122 7.3124C4.03224 7.49311 2.84632 8.96271 3.01591 10.6029L4.4974 24.9309C5.10966 30.8522 7.02071 35.7192 10.6437 39.005L10.6749 39.0329C11.3016 39.5856 11.9607 40.0765 12.6498 40.5079C12.5667 40.6513 12.495 40.8024 12.4359 40.96L8.60656 51.18C8.09025 52.5579 8.64958 54.107 9.92713 54.8372C12.5548 56.3391 15.5162 57.3645 18.7727 57.9497C22.1174 58.5781 25.7006 58.6627 29.5001 58.2438C33.9872 57.749 37.9522 56.4597 41.2915 54.2767C41.4882 54.1505 41.6819 54.0217 41.8726 53.8901V60.0455C41.8726 61.7023 43.2157 63.0455 44.8726 63.0455H57.6403C59.2971 63.0455 60.6403 61.7023 60.6403 60.0455V51.7616C62.0111 52.1423 63.4888 52.3113 65.041 52.3113C68.4865 52.3113 71.6497 51.5184 74.4321 49.845C76.0146 48.906 77.3902 47.7463 78.5557 46.3802C79.3022 47.1827 80.1246 47.913 81.0239 48.567C81.0399 48.5787 81.056 48.5902 81.0722 48.6015C83.6905 50.4278 86.6337 51.4841 89.8458 51.7686C92.249 51.9815 94.5137 51.8003 96.5388 51.1251C97.0128 51.5746 97.6363 51.8732 98.3372 51.9353L110.439 53.0073C111.234 53.0777 112.025 52.8282 112.636 52.3139C113.247 51.7997 113.627 51.0631 113.693 50.2674L114.19 44.2955C114.487 45.4181 114.994 46.4934 115.703 47.5051C117.327 49.8213 119.68 51.2136 122.493 51.7618C125.304 52.3097 128.008 51.9026 130.366 50.3384C132.661 48.8155 134.107 46.6157 134.603 43.9056C135.101 41.1811 134.545 38.5968 132.896 36.3755C132.863 36.3297 132.83 36.2842 132.796 36.2392C133.291 35.8615 133.672 35.3278 133.857 34.6881L140.882 10.4103C141.116 9.60134 140.999 8.73129 140.56 8.01265C140.121 7.29401 139.4 6.79294 138.574 6.63185L123.585 3.71058C122.747 3.54717 121.878 3.74893 121.198 4.26526C120.517 4.78159 120.089 5.56352 120.021 6.41499L117.993 31.6666C117.939 32.3287 118.106 32.9622 118.435 33.4908C118.399 33.5132 118.363 33.5359 118.327 33.5588C116.679 34.5883 115.48 35.9889 114.74 37.6749L116.335 18.4733C116.471 16.8285 115.254 15.3822 113.61 15.2366L100.889 14.1097C100.288 14.0565 99.689 14.186 99.1689 14.4746C97.3895 13.5557 95.3395 13.0327 93.1131 12.8354C89.8869 12.5496 86.7965 13.0984 83.9016 14.4871C81.6575 15.5512 79.7353 17.0772 78.1328 19.0134C77.9734 18.8459 77.8099 18.6809 77.6424 18.5185C73.9375 14.8883 68.9685 13.2337 63.1202 13.2337C59.0925 13.2337 55.42 13.9853 52.1851 15.587C50.944 16.2014 49.8015 16.9225 48.7621 17.7493L47.52 5.73691ZM63.7428 30.0886C63.7529 30.1016 63.7631 30.1145 63.7734 30.1274C64.1317 30.5745 64.4702 31.3597 64.4702 32.8016C64.4702 34.2767 64.1342 35.0727 63.7892 35.5142C63.5146 35.8371 63.1715 36.0438 62.4423 36.0438C61.713 36.0438 61.3699 35.8371 61.0953 35.5142C60.7503 35.0727 60.4143 34.2767 60.4143 32.8016C60.4143 31.3597 60.7528 30.5745 61.1111 30.1274C61.1214 30.1145 61.1316 30.1016 61.1417 30.0886C61.4475 29.6938 61.776 29.5011 62.4423 29.5011C63.1086 29.5011 63.437 29.6938 63.7428 30.0886ZM96.5413 32.7376C96.4167 34.2368 96.0033 34.9893 95.6243 35.3815C95.2456 35.7431 94.8701 35.885 94.2646 35.8313C93.6578 35.7776 93.3 35.5691 92.9763 35.1323C92.6593 34.6675 92.377 33.845 92.5015 32.3468C92.6286 30.8167 93.0519 30.1133 93.394 29.78C93.7795 29.4044 94.1574 29.2566 94.7733 29.3112C95.3901 29.3658 95.7496 29.5803 96.0775 30.0319C96.3687 30.433 96.6682 31.2097 96.5413 32.7376Z" fill="url(#paint0_linear)" stroke="#AFC9DC" stroke-width="6" stroke-linecap="round" stroke-linejoin="round"/>
    <path d="M46.028 5.89118C45.9869 5.49371 45.7889 5.12907 45.4779 4.87813C45.167 4.62719 44.7687 4.5107 44.3716 4.55449L31.1143 6.0162C30.2948 6.10656 29.7018 6.84135 29.7866 7.66144L31.1182 20.5393C31.3633 22.9102 30.9808 24.3617 30.3265 25.2062C29.6112 26.0848 28.5643 26.6557 27.0163 26.8264C25.3179 27.0136 24.2727 26.6544 23.6016 26.0363C22.9168 25.3667 22.3468 24.1285 22.1288 22.0202L20.7493 8.67834C20.7082 8.28087 20.5102 7.91623 20.1993 7.66529C19.8883 7.41435 19.4901 7.29786 19.0929 7.34165L5.83561 8.80336C5.01612 8.89372 4.42316 9.62852 4.50795 10.4486L5.98945 24.7766C6.57948 30.483 8.39794 34.9432 11.6514 37.8939L11.667 37.9078C14.9843 40.8332 19.3759 41.8928 24.6147 41.3152C27.8162 40.9622 30.5413 39.8593 32.7368 37.9991C32.6405 39.3464 32.2974 40.3136 31.8048 40.9844L31.804 40.9856C31.1333 41.9007 29.77 42.6569 27.2614 42.9335L27.4258 44.4244L27.2614 42.9335C25.4785 43.13 23.5961 43.0521 21.6078 42.687C19.6574 42.28 17.7641 41.611 15.9253 40.6756C15.5447 40.482 15.0996 40.4598 14.7016 40.6146C14.3036 40.7693 13.9904 41.0864 13.8406 41.4863L10.0112 51.7063C9.75304 52.3953 10.0327 53.1698 10.6715 53.5349C13.1327 54.9416 15.93 55.9155 19.0441 56.4745C22.223 57.0723 25.6572 57.1584 29.3357 56.7528C33.6389 56.2784 37.3695 55.0499 40.476 53.0177C41.5365 52.338 42.5023 51.5745 43.3726 50.7284V60.0455C43.3726 60.8739 44.0441 61.5455 44.8726 61.5455H57.6403C58.4687 61.5455 59.1403 60.8739 59.1403 60.0455V49.552C59.5008 49.7461 59.8749 49.9183 60.2623 50.0683C60.2755 50.0735 60.2888 50.0784 60.3021 50.0831C61.7049 50.5811 63.294 50.8113 65.041 50.8113C68.2515 50.8113 71.142 50.0745 73.6632 48.557C75.6255 47.3934 77.2396 45.8577 78.5013 43.9684C79.4635 45.2712 80.5979 46.4024 81.9062 47.354L81.9304 47.3712C84.3293 49.0445 87.0212 50.0125 89.9782 50.2744C92.6931 50.5149 95.1094 50.2119 97.1384 49.2775C97.2781 49.8968 97.8039 50.3822 98.4696 50.4411L110.571 51.5131C110.969 51.5484 111.364 51.4236 111.67 51.1665C111.975 50.9093 112.166 50.541 112.199 50.1432L114.84 18.3491C114.908 17.5267 114.299 16.8036 113.477 16.7308L100.756 15.6039C100.359 15.5687 99.9633 15.6934 99.6579 15.9506C99.5354 16.0537 99.4314 16.1747 99.3487 16.3084C97.6038 15.1886 95.4546 14.5487 92.9807 14.3296C90.0168 14.067 87.1957 14.5699 84.5475 15.841C81.992 17.052 79.8793 18.9291 78.2069 21.4213C77.7236 20.7754 77.1868 20.1656 76.5957 19.593C73.2367 16.2999 68.6807 14.7337 63.1202 14.7337C59.2797 14.7337 55.8428 15.4498 52.8506 16.9312C50.7821 17.9554 49.022 19.2921 47.5839 20.9385L46.028 5.89118ZM64.9286 29.1699L64.9439 29.1893C65.575 29.9768 65.9702 31.1278 65.9702 32.8016C65.9702 34.5154 65.5745 35.6797 64.9519 36.4622C64.3622 37.1675 63.5811 37.5438 62.4423 37.5438C61.3034 37.5438 60.5223 37.1675 59.9326 36.4622C59.31 35.6797 58.9143 34.5154 58.9143 32.8016C58.9143 31.1278 59.3095 29.9768 59.9406 29.1893L59.9559 29.1699C60.5608 28.3892 61.337 28.0011 62.4423 28.0011C63.5475 28.0011 64.3237 28.3892 64.9286 29.1699ZM123.298 5.18287C122.879 5.10117 122.445 5.20205 122.105 5.46021C121.764 5.71838 121.55 6.10935 121.516 6.53508L119.488 31.7867C119.427 32.5476 119.947 33.2331 120.696 33.3791L122.08 33.6488C121.039 33.847 120.051 34.2359 119.129 34.8267C117.155 36.0571 115.948 37.903 115.52 40.2402C115.098 42.5498 115.578 44.7141 116.931 46.644C118.306 48.6043 120.3 49.8062 122.78 50.2895C125.259 50.7726 127.551 50.406 129.536 49.0885C131.491 47.7917 132.705 45.9464 133.127 43.6359C133.554 41.2992 133.081 39.1377 131.687 37.2631C131.042 36.3732 130.266 35.6438 129.371 35.0699L130.689 35.3266C131.451 35.4752 132.201 35.0173 132.416 34.2712L139.441 9.99335C139.558 9.58889 139.5 9.15387 139.28 8.79455C139.061 8.43523 138.7 8.1847 138.287 8.10415L123.298 5.18287ZM96.6811 36.4463C95.9765 37.1283 95.1673 37.4172 94.1323 37.3255C93.0967 37.2338 92.3411 36.8055 91.7543 36.0025C91.1752 35.1689 90.862 33.9636 91.0067 32.2226C91.1523 30.4694 91.662 29.3732 92.3472 28.7056C93.0541 28.0169 93.866 27.7249 94.9057 27.817C95.9458 27.9092 96.7034 28.3408 97.2914 29.1507C97.861 29.9353 98.1817 31.1097 98.0361 32.8618C97.8914 34.6037 97.384 35.7319 96.6811 36.4463Z" fill="#637DD7" stroke="#3D0A41" stroke-width="3" stroke-linecap="round" stroke-linejoin="round"/>
    <path d="M44.5359 6.04545L47.349 32.2437C47.7808 36.2656 47.3268 39.7977 45.9869 42.8402C44.647 45.8826 42.5383 48.291 39.6608 50.0654C36.7873 51.8771 33.2908 53.0016 29.1713 53.439C25.6136 53.8167 22.3282 53.7324 19.3151 53.1861C16.3435 52.6729 13.7104 51.7849 11.4158 50.522L15.2452 40.6805C17.2042 41.6401 19.2288 42.329 21.3191 42.7474C23.4428 43.1246 25.4784 43.2097 27.4258 43.003C30.1222 42.7167 31.9849 41.8975 33.0139 40.5453C34.0763 39.1519 34.4616 37.0959 34.1697 34.3774L34.0497 33.2602C31.8445 36.3569 28.6447 38.1279 24.4503 38.5732C19.5069 39.098 15.5765 38.1218 12.6591 35.6444C9.77517 33.1257 8.0493 29.2224 7.48149 23.9343L6 10.137L19.2573 8.72939L20.6368 21.5771C20.8727 23.7743 21.5168 25.3631 22.569 26.3437C23.6586 27.3203 25.1959 27.7032 27.1807 27.4924C29.0532 27.2936 30.4932 26.5946 31.5008 25.3954C32.5043 24.1589 32.8741 22.3117 32.6102 19.8539L31.2787 7.45303L44.5359 6.04545Z" fill="url(#paint1_linear)"/>
    <path d="M63.1202 15.8563C68.393 15.8563 72.5359 17.2795 75.5489 20.1258C78.5619 22.9347 80.0684 26.8296 80.0684 31.8107C80.0684 34.994 79.447 37.7842 78.2041 40.1811C76.9613 42.578 75.1911 44.4318 72.8937 45.7426C70.6339 47.0534 68.0163 47.7088 65.041 47.7088C63.4215 47.7088 62.0091 47.5029 60.8039 47.0909C59.5987 46.6415 58.5442 45.9486 57.6403 45.0123V58.0455H44.8726V31.923C44.8726 28.7022 45.6258 25.8746 47.1323 23.4403C48.6389 21.0059 50.7668 19.1333 53.5162 17.8225C56.2656 16.5117 59.4669 15.8563 63.1202 15.8563ZM62.4423 37.8216C63.9864 37.8216 65.2105 37.2973 66.1144 36.2487C67.0183 35.1626 67.4702 33.6832 67.4702 31.8107C67.4702 29.9755 67.0183 28.5149 66.1144 27.4288C65.2105 26.3053 63.9864 25.7435 62.4423 25.7435C60.8981 25.7435 59.674 26.3053 58.7701 27.4288C57.8662 28.5149 57.4143 29.9755 57.4143 31.8107C57.4143 33.6832 57.8662 35.1626 58.7701 36.2487C59.674 37.2973 60.8981 37.8216 62.4423 37.8216Z" fill="url(#paint2_linear)"/>
    <path d="M113.345 17.7738L110.704 48.3903L98.602 47.358L98.8192 44.8393C96.8035 46.7347 93.9006 47.5208 90.1106 47.1975C87.4088 46.9671 84.9681 46.1198 82.7885 44.6559C80.6497 43.1578 79.0094 41.1385 77.8678 38.5978C76.7636 36.0603 76.3484 33.2057 76.622 30.034C76.8956 26.8622 77.7921 24.1383 79.3115 21.8622C80.8716 19.552 82.8322 17.8586 85.1931 16.782C87.5948 15.6712 90.1465 15.2311 92.8483 15.4616C96.2631 15.7529 98.7954 16.8522 100.445 18.7596L100.624 16.6887L113.345 17.7738ZM93.9999 37.6058C95.4634 37.7306 96.7092 37.3106 97.7375 36.3459C98.769 35.3438 99.3668 33.8912 99.531 31.9882C99.6951 30.0851 99.3532 28.5712 98.5052 27.4464C97.6572 26.3215 96.5015 25.6967 95.038 25.5719C93.5746 25.447 92.3287 25.867 91.3004 26.8318C90.2722 27.7966 89.676 29.2305 89.5118 31.1335C89.3476 33.0365 89.6879 34.5691 90.5327 35.7313C91.3807 36.8561 92.5364 37.4809 93.9999 37.6058Z" fill="url(#paint3_linear)"/>
    <path d="M123.011 6.63259L138 9.44567L130.976 32.8244L120.983 30.949L123.011 6.63259ZM123.067 47.233C120.92 46.8302 119.284 45.8562 118.159 44.3111C117.035 42.7661 116.647 41.0735 116.996 39.2334C117.352 37.3565 118.33 35.9394 119.93 34.9819C121.537 33.9876 123.414 33.6919 125.56 34.0948C127.707 34.4976 129.346 35.4532 130.478 36.9615C131.617 38.4329 132.008 40.1071 131.652 41.984C131.302 43.8241 130.321 45.2597 128.707 46.2907C127.093 47.3218 125.213 47.6359 123.067 47.233Z" fill="url(#paint4_linear)"/>
    <defs>
        <linearGradient id="paint0_linear" x1="6" y1="33.0455" x2="138" y2="33.0455" gradientUnits="userSpaceOnUse">
            <stop/>
            <stop offset="1" stop-color="#C23C54"/>
        </linearGradient>
        <linearGradient id="paint1_linear" x1="-10.0875" y1="69.7455" x2="159.072" y2="6.92516" gradientUnits="userSpaceOnUse">
            <stop stop-color="#1FA2FF"/>
            <stop offset="0.5" stop-color="#12D8FA"/>
            <stop offset="1" stop-color="#A6FFCB"/>
        </linearGradient>
        <linearGradient id="paint2_linear" x1="-10.0875" y1="69.7455" x2="159.072" y2="6.92516" gradientUnits="userSpaceOnUse">
            <stop stop-color="#1FA2FF"/>
            <stop offset="0.5" stop-color="#12D8FA"/>
            <stop offset="1" stop-color="#A6FFCB"/>
        </linearGradient>
        <linearGradient id="paint3_linear" x1="-10.0875" y1="69.7455" x2="159.072" y2="6.92516" gradientUnits="userSpaceOnUse">
            <stop stop-color="#1FA2FF"/>
            <stop offset="0.5" stop-color="#12D8FA"/>
            <stop offset="1" stop-color="#A6FFCB"/>
        </linearGradient>
        <linearGradient id="paint4_linear" x1="-10.0875" y1="69.7455" x2="159.072" y2="6.92516" gradientUnits="userSpaceOnUse">
            <stop stop-color="#1FA2FF"/>
            <stop offset="0.5" stop-color="#12D8FA"/>
            <stop offset="1" stop-color="#A6FFCB"/>
        </linearGradient>
    </defs>
</svg>