<svg width="144" height="235" viewBox="0 0 144 235" fill="none" xmlns="http://www.w3.org/2000/svg">
<path d="M41.7655 4.41719C41.9624 2.05439 44.1597 0.380525 46.49 0.818176L140.628 18.4985C142.964 18.9372 144.404 21.3037 143.721 23.58L97.8264 176.434C97.2382 178.393 95.2671 179.592 93.257 179.215L31.7621 167.665C29.7466 167.287 28.3439 165.446 28.5142 163.402L41.7655 4.41719ZM42.5132 278.834C27.7817 276.067 16.5561 269.378 8.83624 258.767C1.1164 248.156 -1.54507 236.532 0.851816 223.895C3.29664 211.005 10.0088 201.272 20.9884 194.696C32.0159 187.868 44.8955 185.837 59.627 188.604C74.3585 191.371 85.6081 197.933 93.3759 208.291C101.192 218.397 103.877 229.895 101.432 242.785C99.0353 255.422 92.2991 265.281 81.2237 272.363C70.1482 279.444 57.2447 281.601 42.5132 278.834Z" fill="#18D9F9"/>
</svg>
