<svg width="18" height="11" viewBox="0 0 18 11" fill="none" xmlns="http://www.w3.org/2000/svg">
<path d="M17.8656 5.12944C17.7049 4.94063 13.8404 0.5 9.00001 0.5C4.15963 0.5 0.295119 4.94063 0.13442 5.12944C-0.0448066 5.34048 -0.0448066 5.65952 0.13442 5.87056C0.295119 6.05937 4.1597 10.5 9.00001 10.5C13.8403 10.5 17.7049 6.05937 17.8656 5.87056C18.0448 5.65952 18.0448 5.34048 17.8656 5.12944ZM9.00001 9.38889C6.96478 9.38889 5.30861 7.64411 5.30861 5.5C5.30861 3.35589 6.96478 1.61111 9.00001 1.61111C11.0352 1.61111 12.6914 3.35589 12.6914 5.5C12.6914 7.64411 11.0352 9.38889 9.00001 9.38889Z" fill="#00A7F1"/>
<path d="M9.52736 4.38889C9.52736 3.83 9.79071 3.33833 10.1914 3.03593C9.83184 2.84204 9.43085 2.72222 9.00001 2.72222C7.5462 2.72222 6.3633 3.96841 6.3633 5.5C6.3633 7.03159 7.5462 8.27778 9.00001 8.27778C10.3016 8.27778 11.379 7.27652 11.5918 5.96822C10.5299 6.32841 9.52736 5.4823 9.52736 4.38889Z" fill="#00A7F1"/>
</svg>
