<svg width="80" height="26" viewBox="0 0 80 26" fill="none" xmlns="http://www.w3.org/2000/svg">
    <path d="M74.6109 0.938171H69.5823C68.062 0.938171 66.8926 1.4059 66.1909 2.926L56.6016 24.7921H63.3843C63.3843 24.7921 64.5537 21.8689 64.7876 21.1673C65.4893 21.1673 72.155 21.1673 73.0906 21.1673C73.3245 21.9858 73.9092 24.6752 73.9092 24.6752H79.9903L74.6109 0.938171ZM66.6587 16.2562C67.2434 14.853 69.2315 9.59108 69.2315 9.59108C69.2315 9.70801 69.8162 8.18791 70.0501 7.36939L70.5178 9.47415C70.5178 9.47415 71.8042 15.2038 72.0381 16.3731H66.6587V16.2562Z" fill="#3362AB"/>
    <path d="M57.0667 16.9578C57.0667 21.8689 52.6228 25.143 45.7232 25.143C42.7996 25.143 39.9929 24.5583 38.4727 23.8567L39.4082 18.4779L40.2268 18.8287C42.3318 19.7641 43.7351 20.1149 46.3079 20.1149C48.179 20.1149 50.167 19.4133 50.167 17.7763C50.167 16.7239 49.3484 16.0223 46.7756 14.853C44.3198 13.6837 41.0454 11.8128 41.0454 8.42179C41.0454 3.74455 45.6062 0.587402 52.0381 0.587402C54.4939 0.587402 56.5989 1.05513 57.8853 1.63978L56.9497 6.78476L56.482 6.31703C55.3125 5.84931 53.7923 5.38158 51.5703 5.38158C49.1145 5.49851 47.9451 6.55089 47.9451 7.48634C47.9451 8.53872 49.3484 9.35724 51.5703 10.4096C55.3125 12.1636 57.0667 14.1514 57.0667 16.9578Z" fill="#3362AB"/>
    <path d="M0 1.17207L0.116943 0.704346H10.1741C11.5774 0.704346 12.6299 1.17207 12.9807 2.69218L15.2027 13.216C12.9807 7.60329 7.83521 3.04297 0 1.17207Z" fill="#F9B50B"/>
    <path d="M29.3545 0.93822L19.1804 24.6753H12.2808L6.43359 4.79695C10.6436 7.48637 14.1519 11.6959 15.4382 14.6192L16.1399 17.0747L22.4549 0.821289H29.3545V0.93822Z" fill="#3362AB"/>
    <path d="M32.0422 0.821289H38.4742L34.3811 24.6753H27.9492L32.0422 0.821289Z" fill="#3362AB"/>
</svg>