<svg width="12" height="13" viewBox="0 0 12 13" fill="none" xmlns="http://www.w3.org/2000/svg">
    <path d="M11.1818 10.3182H9.27272C8.06969 10.3182 7.09092 9.33944 7.09092 8.13643C7.09092 6.93341 8.06969 5.95465 9.27272 5.95465H11.1818C11.3326 5.95465 11.4546 5.83267 11.4546 5.68192V4.86375C11.4546 4.29185 11.0109 3.82675 10.4505 3.78165L8.88416 1.0459C8.73901 0.792877 8.50463 0.612036 8.22417 0.536944C7.94505 0.462363 7.65316 0.501532 7.40333 0.646936L2.03395 3.77285H1.09092C0.489272 3.77285 0 4.26209 0 4.86375V11.4091C0 12.0107 0.489246 12.5 1.09092 12.5H10.3636C10.9653 12.5 11.4546 12.0108 11.4546 11.4091V10.5909C11.4546 10.4402 11.3326 10.3182 11.1818 10.3182ZM9.2224 2.7349L9.81666 3.77285H7.43956L9.2224 2.7349ZM3.11804 3.77285L7.67791 1.11833C7.80123 1.04615 7.9453 1.02698 8.08301 1.06374C8.22231 1.10102 8.33844 1.19104 8.41062 1.31702L8.41118 1.31801L4.19474 3.77285H3.11804Z" fill="#00A7F1"/>
    <path d="M11.1818 6.50009H9.27272C8.37037 6.50009 7.63636 7.23409 7.63636 8.13643C7.63636 9.03876 8.37037 9.77276 9.27272 9.77276H11.1818C11.633 9.77276 12 9.40576 12 8.95459V7.31826C12 6.86709 11.633 6.50009 11.1818 6.50009ZM9.27272 8.68186C8.97204 8.68186 8.72728 8.4371 8.72728 8.13643C8.72728 7.83575 8.97204 7.59099 9.27272 7.59099C9.5734 7.59099 9.81817 7.83575 9.81817 8.13643C9.81819 8.4371 9.57343 8.68186 9.27272 8.68186Z" fill="#00A7F1"/>
</svg>